<?xml version="1.0" encoding="utf-8"?>
<!-- Generator: Adobe Illustrator 19.0.0, SVG Export Plug-In . SVG Version: 6.00 Build 0)  -->
<svg version="1.1" id="Layer_1" xmlns="http://www.w3.org/2000/svg" xmlns:xlink="http://www.w3.org/1999/xlink" x="0px" y="0px"
	 viewBox="0 0 1500 600" style="enable-background:new 0 0 1500 600;" xml:space="preserve">
<style type="text/css">
	.st0{fill:url(#XMLID_2_);}
	.st1{fill:url(#XMLID_3_);}
	.st2{fill:url(#XMLID_4_);}
	.st3{fill:url(#XMLID_5_);}
	.st4{fill:url(#XMLID_6_);}
	.st5{fill:url(#XMLID_7_);}
	.st6{fill:url(#XMLID_8_);}
	.st7{fill:url(#XMLID_9_);}
	.st8{fill:url(#XMLID_10_);}
	.st9{fill:url(#XMLID_11_);}
	.st10{fill:url(#XMLID_12_);}
	.st11{fill:url(#XMLID_13_);}
	.st12{fill:url(#XMLID_14_);}
	.st13{fill:url(#XMLID_15_);}
	.st14{fill:url(#XMLID_16_);}
	.st15{fill-rule:evenodd;clip-rule:evenodd;fill:#09509E;}
	.st16{fill-rule:evenodd;clip-rule:evenodd;fill:#6D6F71;}
	.st17{fill-rule:evenodd;clip-rule:evenodd;fill:#39B24A;}
</style>
<g id="XMLID_749_">
	<g id="XMLID_944_">
		<linearGradient id="XMLID_2_" gradientUnits="userSpaceOnUse" x1="574.066" y1="92.2452" x2="692.5075" y2="92.2452">
			<stop  offset="0" style="stop-color:#204694"/>
			<stop  offset="1" style="stop-color:#215EA0"/>
		</linearGradient>
		<path id="XMLID_941_" class="st0" d="M574.1,7.3h23.8v169.8h-23.8V7.3z M590.2,154.5h38.4c12.5,0,22.3-3.2,29.1-9.8
			s10.3-15.7,10.3-27.5v-50c0-11.8-3.4-21-10.3-27.5c-6.9-6.5-16.6-9.8-29.1-9.8h-38.4V7.3h37.7c13.6,0,25.3,2.4,34.9,7.1
			c9.7,4.7,17,11.7,22.1,20.8c5.1,9.1,7.6,20.1,7.6,32.9v48.1c0,12.8-2.5,23.8-7.6,32.9c-5.1,9.1-12.4,16-22.1,20.8
			c-9.7,4.8-21.4,7.1-35,7.1h-37.6V154.5z"/>
		<linearGradient id="XMLID_3_" gradientUnits="userSpaceOnUse" x1="707.6936" y1="92.2452" x2="853.2325" y2="92.2452">
			<stop  offset="0" style="stop-color:#204694"/>
			<stop  offset="1" style="stop-color:#215EA0"/>
		</linearGradient>
		<path id="XMLID_938_" class="st1" d="M770.3,7.3h20.3l62.6,169.8h-25.7l-47.1-137l-47.1,137h-25.7L770.3,7.3z M736.5,117.2h89.4
			v22.7h-89.4V117.2z"/>
		<linearGradient id="XMLID_4_" gradientUnits="userSpaceOnUse" x1="850.8964" y1="92.2452" x2="970.7383" y2="92.2452">
			<stop  offset="0" style="stop-color:#204694"/>
			<stop  offset="1" style="stop-color:#215EA0"/>
		</linearGradient>
		<path id="XMLID_935_" class="st2" d="M850.9,7.3h119.8V30H850.9V7.3z M898.9,21.2h23.8v155.9h-23.8V21.2z"/>
		<linearGradient id="XMLID_5_" gradientUnits="userSpaceOnUse" x1="967.2358" y1="92.2452" x2="1112.7745" y2="92.2452">
			<stop  offset="0" style="stop-color:#204694"/>
			<stop  offset="1" style="stop-color:#215EA0"/>
		</linearGradient>
		<path id="XMLID_932_" class="st3" d="M1029.8,7.3h20.3l62.6,169.8h-25.7l-47.1-137l-47.1,137h-25.7L1029.8,7.3z M996.1,117.2h89.4
			v22.7h-89.4V117.2z"/>
		<linearGradient id="XMLID_6_" gradientUnits="userSpaceOnUse" x1="563.5552" y1="298.3815" x2="687.4845" y2="298.3815">
			<stop  offset="0" style="stop-color:#204694"/>
			<stop  offset="1" style="stop-color:#215EA0"/>
		</linearGradient>
		<path id="XMLID_930_" class="st4" d="M612.8,385.1c0,0-3.7-0.8-11-2.3c-7.3-1.6-14.2-3.9-20.5-7c-6.4-3.1-12.3-7-17.8-11.7
			l14.8-18.2c6.5,5.6,13.6,9.8,21.4,12.6c7.8,2.8,16.2,4.2,25.3,4.2c12.3,0,21.8-2.3,28.6-6.8c6.8-4.6,10.2-11,10.2-19.3v-0.1
			c0-5.9-1.5-10.6-4.6-14.1c-3.1-3.5-7-6-11.9-7.7c-4.9-1.7-11.2-3.2-18.9-4.6c-0.2-0.1-0.5-0.1-0.8-0.1c-0.3,0-0.5,0-0.8-0.1
			l-1.8-0.3c-11.4-1.9-20.6-4.1-27.7-6.6c-7.1-2.5-13.2-6.9-18.3-13.4c-5.1-6.5-7.6-15.7-7.6-27.7v-0.1c0-10.5,2.4-19.5,7.1-26.9
			c4.7-7.4,11.6-13.1,20.6-17c9-3.9,19.9-5.8,32.6-5.8c6.1,0,12,0.7,17.9,2c5.9,1.3,11.7,3.3,17.4,5.9c5.7,2.6,11.3,5.9,16.9,9.9
			l-13.6,18.9c-6.5-4.7-12.9-8.3-19.3-10.7c-6.4-2.4-12.9-3.6-19.3-3.6c-11.6,0-20.6,2.3-27,7c-6.4,4.6-9.6,11.2-9.6,19.7v0.1
			c0,5.8,1.7,10.4,5,13.8c3.3,3.4,7.4,5.8,12.4,7.4s11.8,3.2,20.6,5c0.3,0.1,0.6,0.1,0.9,0.2c0.3,0,0.6,0.1,0.9,0.2
			c0.4,0.1,0.8,0.2,1.3,0.2c0.5,0.1,0.9,0.2,1.3,0.2c10.3,2.1,18.9,4.6,25.8,7.5c6.9,2.9,12.7,7.5,17.3,14
			c4.6,6.4,6.9,15.2,6.9,26.3v0.2c0,10.4-2.5,19.2-7.4,26.6c-4.9,7.4-12,13-21.3,16.8c-9.3,3.9-20.5,5.8-33.7,5.8
			C616.9,385.1,612.8,385.1,612.8,385.1z"/>
		<linearGradient id="XMLID_7_" gradientUnits="userSpaceOnUse" x1="713.1845" y1="298.3815" x2="830.8073" y2="298.3815">
			<stop  offset="0" style="stop-color:#204694"/>
			<stop  offset="1" style="stop-color:#215EA0"/>
		</linearGradient>
		<path id="XMLID_928_" class="st5" d="M754.6,385.1c0,0-4.5-2.6-13.4-7.8c-8.9-5.2-15.8-12.6-20.7-22.2c-4.9-9.6-7.4-20.7-7.4-33.3
			v-46.6c0-12.6,2.5-23.7,7.4-33.3c4.9-9.6,11.8-17,20.7-22.3c8.9-5.3,19.3-7.9,31-7.9c9.7,0,18.7,2.1,26.9,6.2
			c8.2,4.2,15,10.1,20.5,17.7c5.5,7.6,9.2,16.5,11.2,26.5h-24.4c-1.5-5.3-4-10-7.4-14.2c-3.5-4.2-7.5-7.4-12.2-9.6
			c-4.7-2.3-9.5-3.4-14.5-3.4c-6.9,0-13,1.7-18.2,5c-5.2,3.3-9.3,8-12.1,14.1c-2.9,6-4.3,13.1-4.3,21.1v46.6c0,7.9,1.4,15,4.3,21
			c2.9,6.1,6.9,10.8,12.1,14.1s11.3,5,18.2,5c5.1,0,9.9-1,14.5-3.2c4.6-2.1,8.7-5.2,12.1-9.3c3.5-4.1,5.9-9,7.4-14.7h24.4
			c-1.9,10-5.7,18.9-11.2,26.5c-5.5,7.6-12.4,13.5-20.6,17.7c-8.2,4.2-17.1,6.2-26.7,6.2C760.5,385.1,754.6,385.1,754.6,385.1z"/>
		<linearGradient id="XMLID_8_" gradientUnits="userSpaceOnUse" x1="862.3428" y1="298.3799" x2="886.1715" y2="298.3799">
			<stop  offset="0" style="stop-color:#204694"/>
			<stop  offset="1" style="stop-color:#215EA0"/>
		</linearGradient>
		<path id="XMLID_926_" class="st6" d="M886.2,383.3h-23.8V213.5h23.8V383.3z"/>
		<linearGradient id="XMLID_9_" gradientUnits="userSpaceOnUse" x1="928.221" y1="298.3799" x2="1037.3182" y2="298.3799">
			<stop  offset="0" style="stop-color:#204694"/>
			<stop  offset="1" style="stop-color:#215EA0"/>
		</linearGradient>
		<path id="XMLID_921_" class="st7" d="M928.2,213.5H952v169.8h-23.8V213.5z M939.8,213.5h97.5v22.7h-97.5V213.5z M939.8,287.6h84.7
			v22.7h-84.7V287.6z M939.8,360.6h97.5v22.7h-97.5V360.6z"/>
		<linearGradient id="XMLID_10_" gradientUnits="userSpaceOnUse" x1="1071.193" y1="298.3214" x2="1196.6427" y2="298.3214">
			<stop  offset="0" style="stop-color:#204694"/>
			<stop  offset="1" style="stop-color:#215EA0"/>
		</linearGradient>
		<path id="XMLID_919_" class="st8" d="M1071.2,213.5h21.6l83,131.3l-2.8,3V213.5h23.6v169.7h-21.8L1092,253.9l2.8-3v132.3h-23.6
			V213.5z"/>
		<linearGradient id="XMLID_11_" gradientUnits="userSpaceOnUse" x1="1235.1897" y1="298.3815" x2="1352.8125" y2="298.3815">
			<stop  offset="0" style="stop-color:#204694"/>
			<stop  offset="1" style="stop-color:#215EA0"/>
		</linearGradient>
		<path id="XMLID_917_" class="st9" d="M1276.7,385.1c0,0-4.5-2.6-13.4-7.8s-15.8-12.6-20.7-22.2c-4.9-9.6-7.4-20.7-7.4-33.3v-46.6
			c0-12.6,2.5-23.7,7.4-33.3c4.9-9.6,11.8-17,20.7-22.3s19.3-7.9,31-7.9c9.7,0,18.7,2.1,26.9,6.2c8.2,4.2,15,10.1,20.5,17.7
			c5.5,7.6,9.2,16.5,11.2,26.5h-24.4c-1.5-5.3-4-10-7.4-14.2c-3.5-4.2-7.5-7.4-12.2-9.6c-4.7-2.3-9.5-3.4-14.5-3.4
			c-6.9,0-13,1.7-18.2,5c-5.2,3.3-9.3,8-12.1,14.1c-2.9,6-4.3,13.1-4.3,21.1v46.6c0,7.9,1.4,15,4.3,21c2.9,6.1,6.9,10.8,12.1,14.1
			c5.2,3.3,11.3,5,18.2,5c5.1,0,9.9-1,14.5-3.2c4.6-2.1,8.7-5.2,12.1-9.3c3.5-4.1,5.9-9,7.4-14.7h24.4c-1.9,10-5.7,18.9-11.2,26.5
			c-5.5,7.6-12.4,13.5-20.6,17.7c-8.2,4.2-17.1,6.2-26.7,6.2C1282.5,385.1,1276.7,385.1,1276.7,385.1z"/>
		<linearGradient id="XMLID_12_" gradientUnits="userSpaceOnUse" x1="1384.348" y1="298.3799" x2="1493.4452" y2="298.3799">
			<stop  offset="0" style="stop-color:#204694"/>
			<stop  offset="1" style="stop-color:#215EA0"/>
		</linearGradient>
		<path id="XMLID_912_" class="st10" d="M1384.3,213.5h23.8v169.8h-23.8V213.5z M1395.9,213.5h97.5v22.7h-97.5V213.5z M1395.9,287.6
			h84.7v22.7h-84.7V287.6z M1395.9,360.6h97.5v22.7h-97.5V360.6z"/>
		<linearGradient id="XMLID_13_" gradientUnits="userSpaceOnUse" x1="574.066" y1="507.7548" x2="683.1632" y2="507.7548">
			<stop  offset="0" style="stop-color:#7CBB79"/>
			<stop  offset="1" style="stop-color:#38A94B"/>
		</linearGradient>
		<path id="XMLID_909_" class="st11" d="M574.1,422.8h23.8v169.8h-23.8V422.8z M586,570h97.2v22.7H586V570z"/>
		<linearGradient id="XMLID_14_" gradientUnits="userSpaceOnUse" x1="697.1797" y1="507.7548" x2="842.7185" y2="507.7548">
			<stop  offset="0" style="stop-color:#7CBB79"/>
			<stop  offset="3.763441e-002" style="stop-color:#79BA77"/>
			<stop  offset="1" style="stop-color:#38A94B"/>
		</linearGradient>
		<path id="XMLID_906_" class="st12" d="M759.8,422.8h20.3l62.6,169.8H817l-47.1-137l-47.1,137h-25.7L759.8,422.8z M726,532.8h89.4
			v22.7H726V532.8z"/>
		<linearGradient id="XMLID_15_" gradientUnits="userSpaceOnUse" x1="868.4154" y1="507.7548" x2="987.2078" y2="507.7548">
			<stop  offset="0" style="stop-color:#7CBB79"/>
			<stop  offset="1" style="stop-color:#38A94B"/>
		</linearGradient>
		<path id="XMLID_903_" class="st13" d="M868.4,422.8h23.7v169.8h-23.7V422.8z M882.4,570.6h46c12.1,0,20.9-2.3,26.4-6.9
			c5.5-4.6,8.3-11.1,8.3-19.4V544c0-5.8-1-10.7-3-14.8c-2-4.1-5.1-7.3-9.4-9.5s-9.8-3.3-16.5-3.3h-51.9v-21.5h51.9
			c8.8,0,15.4-2.1,19.9-6.2c4.5-4.1,6.7-10.2,6.7-18.3c0-8.5-2.5-14.8-7.5-19c-5-4.2-12.5-6.3-22.4-6.3h-48.6v-22.1h52.9
			c11,0,20.2,1.9,27.6,5.6c7.4,3.7,12.9,9,16.6,15.9c3.7,6.9,5.5,15,5.5,24.5c0,5.8-1.1,11.3-3.4,16.4c-2.3,5.1-5.7,9.5-10.3,13.1
			c-4.6,3.6-10.4,6.1-17.2,7.3c6.9,1,12.8,3.4,17.8,7.3c5,3.9,8.8,8.7,11.4,14.4c2.6,5.8,4,12,4,18.7v0.4c0,9.2-2,17.3-6.1,24.3
			c-4,7-9.9,12.4-17.4,16.2c-7.6,3.8-16.4,5.7-26.4,5.7h-54.9V570.6z"/>
	</g>
	<g id="XMLID_618_">
		<g id="XMLID_787_">
			<linearGradient id="XMLID_16_" gradientUnits="userSpaceOnUse" x1="129.8644" y1="425.8322" x2="335.0116" y2="48.2162">
				<stop  offset="0" style="stop-color:#79BA77"/>
				<stop  offset="1" style="stop-color:#204694"/>
			</linearGradient>
			<path id="XMLID_788_" class="st14" d="M271,459.8c-1.4-1-3.2-1.4-4.4-2.8c-1.6-1.8-2.5-3.9-2.4-6.3c-7.5-1.2-14.8-2.4-22.1-3.5
				c-9.9-1.6-19.9-3.1-29.8-4.7c-9.1-1.4-18.3-2.9-27.4-4.4c-8.9-1.4-17.9-2.8-26.8-4.2c-4.8-0.8-9.5-1.5-14.3-2.3
				c-1-0.2-1.7,0-2.4,1c-2.9,4.3-7.6,4.6-10.7,2.9c-4.1-2.2-5.6-6.6-3.8-10.8c0.5-1.1,0.3-1.7-0.5-2.5c-25.7-25.6-51.3-51.3-77-76.9
				c-3-3-6-6-9-9c-0.5-0.5-0.9-1.2-2-0.7c-4.6,1.7-8.8-0.3-10.8-4.9c-1.6-3.9,0.4-8.5,4.6-10.4c0.5-0.2,1-0.4,1.8-0.7
				c-6.1-38.7-12.3-77.4-18.4-116.2c-5.2-0.3-9.8-3.6-8.9-10c0.7-5.2,5.3-7.7,11.6-6.4c1.7-3.4,3.5-6.8,5.2-10.2
				c7.6-14.9,15.2-29.9,22.8-44.8c7.2-14.1,14.4-28.2,21.6-42.4c1.2-2.4,2.3-4.8,3.6-7.1c0.6-1.1,0.7-1.7-0.4-2.7
				c-3.4-3-3.6-8-0.5-11.4c3.2-3.6,7.9-4.1,11.4-1.1c1,0.9,1.8,0.7,2.7,0.2c10.5-5.4,21-10.8,31.5-16.1c13.7-7,27.5-13.9,41.2-20.9
				c11-5.6,22-11.3,33.1-16.9c-0.2-1.3-0.8-2.5-0.8-3.8c0-4.2,2.9-7.9,6.8-8.6c4.3-0.7,8.6,1.8,9.6,6.1c0.4,1.6,1.1,2,2.6,2.2
				c24.7,3.9,49.3,7.8,74,11.7c14.9,2.3,29.7,4.7,44.6,7c0.4,0.1,0.8,0,1.2,0c3.1-5.6,7.4-7.5,12-5.2c4.6,2.3,5.8,6.8,3.3,12.7
				c4.6,4.5,9.2,9.1,13.8,13.7c23.4,23.4,46.8,46.7,70.1,70.1c1.1,1.1,1.8,1.3,3.2,0.5c4-2.2,8.9-0.6,11.2,3.3c2.2,4,1,9-3,11.3
				c-1.2,0.7-1.5,1.4-1.3,2.7c2.9,18,5.7,35.9,8.5,53.9c3,18.6,6,37.3,8.9,55.9c0.5,3.2,1,6.5,1.5,9.8c1.6,0.3,3.2,0.4,4.7,1.2
				c2.6,1.4,3.7,3.9,4.6,6.4c0,0.8,0,1.6,0,2.5c-0.1,0.1-0.3,0.1-0.3,0.2c-2.4,5.9-5.1,7.4-11.5,6.3c-0.1,0-0.3,0.1-0.4,0.1
				c-17.9,35.2-35.9,70.3-53.8,105.4c0.4,0.4,0.6,0.5,0.7,0.6c3.6,2.9,4.3,8,1.6,11.5c-3,3.9-8,4.6-11.8,1.6
				c-1.1-0.8-1.8-0.7-2.9-0.1c-14.1,7.3-28.3,14.5-42.4,21.7c-19.5,9.9-39,19.8-58.4,29.7c-2.2,1.1-4.6,2-6.7,3.6
				c1.7,4,0.8,7.4-2.4,10.2c-1.4,1.2-3.1,1.5-4.7,2.1C272.3,459.8,271.7,459.8,271,459.8z M321.1,119.6c0.1,0.1,0.3,0.1,0.4,0.2
				c0-0.2-0.1-0.3-0.1-0.5c-0.2-0.3-0.3-0.5-0.5-0.8c-0.2-0.4-0.3-0.9-0.6-1.3c-4.5-8-9.1-16-13.6-24.1c-2.2-4-4.5-7.9-6.6-11.7
				c-3.4,0.4-6.7-0.2-9.9,0.6c-1.6,0.4-3.2-0.6-4.5-1.6c-0.4-0.3-0.7-0.9-1.4-0.8c-0.1,0.6-0.1,1.4-0.5,1.9
				c-0.9,1.4-0.3,2.2,0.8,3.2c4.8,4.5,9.5,9.1,14.2,13.6c7.2,6.9,14.5,13.8,21.7,20.7C320.6,119.4,320.8,119.6,321.1,119.6z
				 M379.4,83.9c0.2,0.3,0.5,0.4,0.8,0.1c0.2-0.2,0.1-0.4-0.2-0.6c-0.2-0.3-0.3-0.6-0.6-0.9c-10.2-12.2-20.4-24.4-30.6-36.5
				c-2.4-2.9-4.8-5.7-7.3-8.7c-2.1,1.5-4.3,1.5-6.6,1.5c-0.4,2.1-1.2,4.1-1,5.9c0.3,2.3,0.8,4.9,2.3,6.5c2.4,2.6,5.7,4.5,8.6,6.6
				c0.5,0.4,1,0.3,1.6,0.3c4,0.2,6.4,2,7.6,5.8c0.2,0.6,0.4,1.1,0.9,1.5C363.1,71.6,371.3,77.8,379.4,83.9z M245.7,49.2
				c-13.9,6.1-27.7,12.2-41.6,18.3c-2.9,1.3-5.8,2.6-9.2,4.1c7.8,1.8,15,3.4,22.3,5.1c0.9,0.2,1.3-0.1,1.8-0.8
				c1.6-2.2,3.5-2.8,6.1-1.8c1,0.4,1.5,0.1,2-0.6c6.3-7.9,12.6-15.8,19-23.7C246.4,49.2,246.2,49.1,245.7,49.2z M34.5,159.6
				c3-2.3,6.2-2.6,9.5-0.8c0.3-0.2,0.5-0.3,0.6-0.5c8.7-12,17.4-23.9,26.1-35.9c0.3-0.4,0.6-1,0.7-1.5c0.3-3.7,0.6-7.5,0.9-11.2
				c-5.2-2-7.3-6-5.4-10.3c2-4.4,6.5-5.5,11.6-2.8c0.1,0,0.2,0,0.2,0c8.7-8,17.4-15.9,26-23.9c0.5-0.4,0.7-0.8,0.4-1.6
				c-0.6-1.3-1.2-1.8-2.8-1.5c-5.5,1.1-11.1,2.1-16.7,3.1c-0.8,7.4-4.6,10.1-12.1,8.8c-0.6,1.1-1.2,2.3-1.8,3.4
				c-9.1,17.8-18.1,35.5-27.2,53.3c-3.5,6.9-7.3,13.8-10.5,20.9C33.9,159.7,34,159.9,34.5,159.6z M411.1,305.7
				c-5.1,1.8-10.1,3.6-15.2,5.5c-24.1,8.8-48.2,17.7-72.3,26.6c-0.7,0.3-1.9,0.2-1.7,1.6c0.1,1.2,1.2,1,1.9,1.1
				c17.9,3.4,35.9,6.7,53.9,10.1c1.3,0.2,1.9,0,2.7-1c6.1-8.5,12.3-17,18.4-25.4c4.3-6,8.6-12,12.9-18c0.1-0.2,0.3-0.4,0.3-0.5
				C411.7,305.4,411.4,305.5,411.1,305.7z M315.2,267.7c-31.9,18.2-63.7,36.4-95.6,54.7c0.2,0.9,0.3,1.7,0.5,2.5
				c4,0.6,8,1.2,11.9,1.7c17.1,2.5,34.3,5.1,51.4,7.6c8.5,1.3,17.1,2.5,25.6,3.8c0.7,0.1,1.5,0.6,2-0.5c0.9-2.1,2.8-3.1,4.9-3.7
				c1.1-21.3,2.1-42.6,3.2-64C317.5,269.4,316.3,268.7,315.2,267.7z M325.1,266.9c-1,1.5-2.2,2.6-3.9,2.9c-1,0.2-0.9,0.9-0.9,1.6
				c-1,19.6-1.9,39.1-2.9,58.7c-0.1,2.2-0.8,4.6,2.4,5.3c0.1,0,0.2,0.1,0.3,0.3c1,1.8,2.3,1.2,3.8,0.7c22.7-8.4,45.4-16.7,68.1-25
				c7.2-2.6,14.3-5.3,21.4-7.9c0-1,0-1.9,0-2.8C383.9,289.3,354.6,278.1,325.1,266.9z M324.7,260.8c0.6,0.9,1.1,1.7,0.9,2.5
				c-0.3,2,0.8,2.6,2.4,3.2c27.8,10.5,55.6,21.2,83.4,31.8c2.7,1,2.7,1,4.5-1.6c-11.9-26.6-23.8-53.2-35.7-79.8
				c-2.1,0.4-3.9,0-5.6-1.2C358,230.7,341.4,245.7,324.7,260.8z M257.5,238.5c-26.2,4.7-52.2,9.3-78.2,14c0,1.6-0.2,3.2-1.2,4.2
				c-1,1-0.7,1.7-0.1,2.7c4.4,7.7,8.7,15.3,13,23c6.7,11.8,13.3,23.6,20,35.3c0.3,0.6,0.4,1.7,1.5,1.4c1.3-0.4,2.6,0,3.9,0
				c14.4-25.7,28.7-51.4,43.1-77.2C258.7,241,258,239.9,257.5,238.5z M320.1,122.3c-3.1-3.5-6-7.1-9.3-10.4
				c-9.1-9-18.4-17.8-27.7-26.7c-0.5-0.5-0.8-1.1-1.7-0.6c-2,1.2-4,1-6.1,0.1c-19.1,23.3-38.2,46.6-57.2,69.7c0.7,2.1,1.9,2,3.5,1.5
				c25.6-7.8,51.2-15.6,76.8-23.3c7-2.1,14.1-4.3,21.2-6.4C319.4,124.5,319.9,123,320.1,122.3z M219.9,161.3
				c23,9.7,45.8,19.4,68.6,29.1c1.4-1.8,3.1-3.1,5.2-2.8c1.4,0.2,2-0.3,2.6-1.5c6.2-13.2,12.5-26.5,18.7-39.7
				c2.5-5.3,5-10.6,7.4-15.7c-1.3-2.1-2.6-3-5.2-2.2c-27.3,8.4-54.8,16.7-82.1,25c-5,1.5-10,3-15.1,4.6
				C219.9,159.1,219.9,160.1,219.9,161.3z M152.9,333.1c-0.1,1.5-0.4,2.9-1.4,3.7c-1.1,0.9-0.7,1.7-0.2,2.6
				c13.3,24.7,26.5,49.3,39.7,74c1,1.8,1.9,2.4,3.8,1.6c0.2-0.7,0.3-1.4,0.5-2.2c1.8-9,3.7-17.9,5.5-26.9
				c3.7-18.1,7.5-36.3,11.2-54.4c0.1-0.6,0.5-1.4-0.4-1.8c-1.6-0.7-2.4-2.1-3.2-3.7C190,328.4,171.6,330.8,152.9,333.1z M268.6,240
				c-1.4,2.1-3.3,3.6-5.7,3.1c-2.1-0.5-2.7,0.5-3.5,2c-11.5,20.6-23,41.3-34.6,61.9c-2.2,3.9-4.4,7.9-6.6,11.8
				c-0.3,0.6-0.8,1.1,0,1.8c0.7,0.6,1.2,0.4,1.8,0c0.3-0.2,0.7-0.4,1.1-0.6c28-16,56-32,83.9-48.1c3.2-1.8,6.4-3.7,9-5.2
				c1.5-4.6-1.5-5.5-4.3-6.7c-0.1,0-0.1-0.1-0.2-0.1C296,253.3,282.4,246.7,268.6,240z M106.2,231.5c0.2-0.1,0.5-0.2,0.7-0.3
				c18.1-8.3,36.1-16.6,54.2-24.8c2.3-1.1,4.5-1.8,4.2-5.1c-0.1-1.1,0.1-1.8-0.9-2.5c-19.7-14.5-39.3-29-58.9-43.7
				c-2.1-1.6-3.9-2.6-6.1-0.6c-0.1,0.1-0.2,0.2-0.3,0.3c0.5,9.1,1,18.2,1.5,27.3c0.8,14.4,1.6,28.9,2.4,43.3c0.1,2.5,0,4.9,2.8,6
				C105.9,231.4,106,231.4,106.2,231.5z M238.4,385.7c-12.7,10.5-25.3,20.8-37.8,31.2c-0.7,0.5-1.4,0.9-0.9,2.1
				c0.5,1.2,1.3,0.8,2,0.7c9.6-0.9,19.2-1.8,28.9-2.6c17.7-1.6,35.5-3.1,53.2-4.7c3.3-0.3,6.8-0.2,10-1.2c15.4-4.8,30.7-9.9,46-14.9
				c0.5-0.2,1.4,0,1.2-1c-0.2-0.8-0.9-0.5-1.4-0.6c-8.5-1.1-17-2.2-25.5-3.3c-13.6-1.7-27.2-3.5-40.7-5.2c-7.9-1-15.8-2-23.6-3
				c-0.7-0.1-1.4-0.4-2,0.5C244.8,387.6,242.6,388.1,238.4,385.7z M299.1,195.2c-0.4,0.6-0.6,1.3-1.1,1.6c-1.9,1.2-1.4,2.7-0.7,4.3
				c6.8,18.2,13.6,36.4,20.3,54.5c0.6,1.6,1,3.3,3.4,2.8c0.4-0.1,0.9,0.1,1.2,0.3c1.1,0.9,1.9,0.4,2.8-0.4
				c15.2-13.8,30.4-27.7,45.7-41.4c1.9-1.7,3.3-3.3,2.1-5.9c0-0.1-0.1-0.1-0.2-0.4C348.2,205.6,323.7,200.4,299.1,195.2z
				 M311.5,343.2c-21.2,12-42.4,23.9-63.6,35.9c0.2,1,0.3,1.7,0.5,2.6c30.8,3.9,61.5,7.8,92.5,11.8c0.4-2.2,1.5-4,3.2-5.5
				c-8.2-14.5-16.4-28.9-24.7-43.4C316.4,346.2,313.8,345.7,311.5,343.2z M176.5,204c0.3,0.1,0.6,0.2,0.8,0.3
				c26.5,9.7,52.9,19.5,79.4,29.2c0.8,0.3,1.7,1,2.6-0.1c1-1.1-0.1-1.8-0.6-2.5c-5.9-9.2-11.9-18.4-17.8-27.6
				c-8-12.4-16-24.8-24-37.2c-0.4-0.6-0.6-1.5-1.6-1.3c-2,0.4-3.6-0.3-5.2-1.5c-11.7,11.9-23.2,23.8-34.9,35.7
				C176.4,200.6,176.7,202.3,176.5,204z M240.6,375.9c2.7-0.9,4.9,0.1,6.7,2c20.7-11.7,41.4-23.4,62-35c1.6-0.9,1.3-1.9,0.9-3.3
				c-10.1-1.5-20.3-3-30.4-4.5c-18.9-2.8-37.8-5.6-56.7-8.4c-1.9-0.3-3.8-0.9-4.6,1.7c-0.2,0.5-0.7,0.8-1.1,1.2
				C225.1,345,232.8,360.4,240.6,375.9z M134.6,390.3c0.2-0.7,0.4-1.4,0.5-2.2c3.2-15.7,6.4-31.5,9.6-47.2c0.5-2.3-1.3-4.6-3.7-4.6
				c-13.4,0-26.7,0.1-40.1,0.1c-1.2,0-1.6,0.5-1.9,1.6c-1,3.5-3.8,5.3-7.4,5.3c-0.6,0-1.2-0.3-1.8,0.1c-1,3.6-2,7.2-3,10.8
				c3.6,2.2,5.2,5.2,3.8,9.3c-0.3,0.9,0.3,1.3,0.7,1.8c2.5,3.4,5,6.9,7.5,10.3c3.1,4.3,6.2,8.5,9.2,12.7c7.2-2.2,10.7-0.1,11.9,7.1
				c0.1,0.5,0.2,0.9,0.8,1c2.4,0.7,4.9,1.5,7.4,2.3C127.8,392.9,129.4,390.8,134.6,390.3z M213.3,100.7c-0.2-0.7-0.4-1.2-0.4-1.7
				c0.2-2.2-1.2-2.9-2.9-3.7c-15.5-7.1-31-14.2-46.5-21.3c-1.1-0.5-2.2-1-3.5-1.1c-5.2-0.5-10.4-1-15.5-1.5c-3.5-0.3-6.9-0.7-10.6-1
				c6.6,18.4,13.1,36.6,19.6,54.8c1.8-0.1,3.7-0.1,4.9,1.3c1.1,1.3,2,0.9,3.2,0.3c12.6-6.3,25.1-12.6,37.7-18.9
				C203.9,105.4,208.6,103.1,213.3,100.7z M172.3,259.1c-0.2,0.6-0.4,1.2-0.6,1.7c-7,21.2-14,42.4-21,63.6c-0.6,1.9-1.6,3.8,0.8,5.2
				c0.3,0.2,0.4,0.5,0.5,0.9c0.4,1.1,1.1,1.3,2.2,1.1c10.4-1.4,20.9-2.7,31.4-4c7.5-1,15.1-1.9,22.6-2.9c0.2-1.9,1-3.4,2.4-4.8
				c-11.6-20.5-23.1-40.8-34.6-61.3C174.8,259,173.6,259.1,172.3,259.1z M83.4,272.5c-12.9,4.9-25.7,9.7-38.4,14.5
				c2.9,5.2,2.5,7.6-1.6,12.1c0.2,0.4,0.5,0.8,0.8,1.2c12.5,17.2,25,34.4,37.5,51.7c1,1.4,2.1,2.2,4,1.7c0.9-3.1,1.7-6.2,2.6-9.4
				c0.1-0.3,0.1-0.5,0.2-0.8c0.4-1-0.3-1.3-0.9-1.8c-3.1-2.6-3.6-6.7-1.4-9.9c1-1.4,2.4-2.2,3.8-2.9c-0.2-4.5-0.5-8.9-0.7-13.2
				c-0.7-12.9-1.4-25.7-2.1-38.6c0-0.7,0.2-1.6-0.8-1.9C85.1,274.6,84.3,273.6,83.4,272.5z M372.6,209.2c2.6-1.9,1.8-3.6,0.5-5.7
				c-9.3-15.4-18.6-30.9-27.8-46.4c-0.8-1.4-1.5-2.3-3.3-1.6c-0.9,0.3-2.1-0.1-2.9-0.6c-1-0.6-1.6-0.4-2.5,0.4
				c-11.6,10.5-23.2,21.1-34.9,31.5c-2.2,1.9-3.9,3.6-2.3,6.7c0.1,0.1,0.1,0.2,0.3,0.4C324,198.9,348.4,204.1,372.6,209.2z
				 M174,247.4c1.5,0.5,3.1,0.7,3.8,2.1c0.9,1.8,2.2,1.5,3.7,1.2c8.9-1.6,17.8-3.2,26.7-4.8c16-2.9,31.9-5.8,47.9-8.6
				c1.1-0.2,1.8-0.5,1.5-1.9c-27.2-10-54.4-20-81.7-30.1c-0.9,1.7-2.4,2.5-4.1,3.1C172.5,221.4,173.3,234.3,174,247.4z M126.4,61.9
				c0-0.6,0-1.2,0-1.7c0.3-3.1,1.9-5.3,4.8-6.4c2.9-1.1,6.1-0.4,8,2.1c1.1,1.3,2,1.2,3.3,0.7c17-5.6,34-11.1,51.1-16.6
				c9-2.9,18-5.9,27.1-8.8c-0.2-1.9,0.1-3.7,0.9-5.5c-5.4-4-10.8-7.9-16.1-11.8c-3.8,4.4-8.9,5.6-14.3,0.7
				c-35.6,18.1-71.3,36.3-107,54.5c0.3,0.8,0.6,1.5,0.9,2.3c6.2-1.1,12.4-2.2,18.7-3.3c0.1-4,1.7-6.9,5.6-8c4.3-1.2,7.2,0.8,9.4,4.3
				C121.4,63.5,123.9,62.7,126.4,61.9z M289.7,197.6c-1.7-1.7-2.1-3.7-1.8-5.9c-0.7-0.3-1.3-0.6-1.9-0.9
				c-21.6-9.1-43.2-18.2-64.7-27.4c-1.7-0.7-2.9-0.9-3.9,1c0.1,0.2,0.3,0.4,0.4,0.7c13.7,21.2,27.4,42.4,41,63.6
				c1.3,2,2.3,3.8,5.2,3.3c1.1-0.2,1.9-0.2,2.6-1.2C274.3,219.7,281.9,208.7,289.7,197.6z M107.5,74.2c-7.2,9.9-14.3,19.7-21.5,29.6
				c0.4,0.3,0.6,0.4,0.8,0.5c20.5,7.8,41,15.6,61.5,23.4c0.7,0.3,1.4,0.6,1.9-0.3c0.5-1,2.2-1.2,1.5-2.9c-1.2-3-2.2-6-3.3-9
				c-5.2-14.4-10.3-28.8-15.5-43.2c-0.3-0.8-0.3-1.9-1.5-2c-4.1-0.4-8.1-0.8-12.2-1.2C116.8,74.7,113.4,76.2,107.5,74.2z
				 M103.8,147.7c0,0.7,0.2,1.3,0,1.7c-1.1,2.1,0.3,3,1.7,4c14.6,10.8,29.1,21.6,43.7,32.4c5.8,4.3,11.5,8.5,17.2,12.7
				c2.2-0.7,2.4-1.9,1.9-3.9c-3.2-13.7-6.2-27.5-9.2-41.2c-1.2-5.6-2.5-11.2-3.8-16.7c-2-0.1-3.8-0.5-4.8-2.1
				c-0.8-1.3-1.7-1.2-2.9-0.8c-8.6,2.8-17.3,5.5-25.9,8.2C115.7,143.9,109.8,145.8,103.8,147.7z M139,398.7
				c16.5,6.5,32.8,12.8,49,19.2c0.8,0.3,1.3,0.2,2.1-0.5c1.1-1.1,0.5-1.9,0-2.8c-13.2-24.6-26.5-49.2-39.6-73.9
				c-1-1.8-2-2.4-3.8-1.6c-1.2,5.7-2.3,11.4-3.5,17c-2.3,11-4.6,22.1-6.8,33.1c-0.1,0.7-0.6,1.4,0.3,2
				C139.2,393.1,139.9,395.6,139,398.7z M419.2,176.3c-2.2-1.9-3.4-4.5-6.2-5.3c-18.2-5.3-36.3-10.5-54.5-15.7
				c-3.8-1.1-7.7-2.2-11.5-3.2c-0.7,0.9-1.2,1.6-1.7,2.4c10.3,17.1,20.5,34.2,30.8,51.4c2.4-0.8,4.5-0.3,6.4,1
				C394.7,196.7,406.8,186.7,419.2,176.3z M234.2,35.1c-0.8,0.5-1.4,1-2.1,1.4c-3.5,2-7.9,1-10-2.3c-0.9-1.4-1.6-1.3-3-0.9
				c-23,7.5-46.1,15-69.2,22.5c-3,1-6,2-9,3c0.2,0.8,0.7,0.6,1.1,0.7c12.6,2.9,25.2,5.7,37.8,8.6c1.2,0.3,2.2,0.2,3.3-0.2
				c2.9-1.1,5.7-0.6,7.7,1.7c1.2,1.4,2.1,1.2,3.5,0.6c14-6.2,28-12.4,41.9-18.5c3.2-1.4,6.3-2.8,9.4-4.2c-0.1-1.1-0.3-2-0.3-2.8
				c0-0.7,0.1-1.3-0.6-1.8C241.2,40.3,237.7,37.7,234.2,35.1z M142.7,329.4c-0.5-0.5-0.8-0.9-1.2-1.3
				c-15.6-16.9-31.3-33.8-46.8-50.7c-1.7-1.9-3.2-3.2-5.7-1.8c-0.1,0.1-0.2,0.1-0.5,0.3c0.9,17.5,1.8,35,2.7,52.5
				c4.9,0.5,6.6,1.8,8.3,6.5c14,0,28,0,42.1,0C141.1,332.8,141.5,331.1,142.7,329.4z M213.7,330.7c-0.1,0.5-0.3,1.2-0.4,1.8
				c-3.2,15.7-6.5,31.5-9.7,47.2c-2.3,11.4-4.7,22.8-7,34.2c-0.2,1-0.3,1.7,0.8,2.4c1.2,0.7,1.7,0.1,2.5-0.5
				c1.9-1.6,3.8-3.2,5.7-4.7c10.3-8.5,20.6-17,30.9-25.5c0.8-0.7,1.2-1.2,0.7-2.4c-0.8-1.9-0.5-3.9,1-5.3c1.2-1.1,0.9-2,0.3-3.2
				c-7.1-14.1-14.2-28.3-21.2-42.5C216.4,330.6,215.7,329.7,213.7,330.7z M156.7,136.5c4.5,20,9,40.2,13.5,60.3
				c0.6,0.1,1.3,0,1.7,0.2c2.1,1.4,3.3,0.2,4.7-1.3c9.9-10.2,19.8-20.3,29.7-30.5c1.6-1.7,3.2-2.9,2.3-5.8c-0.4-1.4-0.7-2.2-2-2.8
				c-12.2-5.9-24.4-11.8-36.5-17.7c-3.5-1.7-7-3.4-10.3-5C158.6,134.9,157.7,135.7,156.7,136.5z M217.7,103.7
				c-0.9-0.4-1.7-0.6-2.3-1.1c-0.9-0.7-1.6-0.6-2.6-0.1c-17.1,8.6-34.2,17.2-51.3,25.6c-2.2,1.1-0.6,2.6-1.1,3.8
				c-0.4,1,0.7,1.2,1.3,1.5c14.6,7.1,29.2,14.1,43.7,21.1c2.1,1,3.8,2.3,6-0.2c0.9-1,1.8-1.6,2-3.1
				C214.8,135.5,216.3,119.7,217.7,103.7z M165.8,205.8c-6.7,3.1-13.3,6.1-20,9.2c-12.6,5.8-25.2,11.5-37.8,17.3
				c-0.7,0.3-1.9,0.4-1.5,1.8c0.3,0.1,0.6,0.2,0.9,0.3c8.3,2.2,16.7,4.4,25,6.7c11.4,3.1,22.8,6.1,34.3,9.2c0.7,0.2,1.5,0.8,2.1,0
				c0.9-1.4,2.4-2,3.9-2.8c-0.7-13-1.5-25.9-2.2-39C168.4,208.3,167,207.2,165.8,205.8z M214.5,153.3c1.3,0.6,2.2,0.7,3.2-0.5
				c18.4-22.5,36.9-45,55.3-67.5c0.5-0.6,1.5-1.1,0.7-2.2c-0.8-1.2-1.6-0.4-2.3-0.2c-15.2,4.8-30.4,9.6-45.7,14.4
				c-0.9,0.3-1.5,0.6-1.7,1.7c-0.3,2-1.6,3.5-3.6,4.1c-1.1,0.3-1.4,0.9-1.4,2c-0.4,4.9-0.9,9.8-1.4,14.7
				C216.6,130.9,215.6,142,214.5,153.3z M302,72.6c1.3,2.2,1.6,4.4,0.1,6.3c-1,1.3-0.7,2.2,0,3.4c6.4,11.3,12.9,22.6,19.1,33.9
				c1.3,2.3,2.4,4.2,5.4,3.5c0.1,0,0.3-0.1,0.6-0.2c5.3-15.4,10.7-30.9,16-46.5c-1.6-0.9-2.8-1.9-3.6-3.3c-0.8-1.5-1-3.1-1-4.7
				c-5.6-1.8-11.1-3.5-16.5-5.4c-1.1-0.4-1.9-0.2-2.8,0.5c-3,2.2-6.1,4.4-9.2,6.5C307.6,68.7,304.9,70.6,302,72.6z M269.1,238.7
				c0.5,0.2,0.8,0.4,1.2,0.6c14.3,6.9,28.6,13.9,42.9,20.8c0.8,0.4,1.6,1.2,2.7,0.1c1.2-1,0.7-1.9,0.3-2.9
				c-4.5-12.2-9.1-24.3-13.6-36.5c-2.7-7.3-5.4-14.6-8.2-21.9c-1.3,0.2-2.5-0.3-3.7-0.5c-8,11.5-15.9,22.9-23.8,34.2
				C268.9,235.4,269,235.5,269.1,238.7z M85.1,105.1c-2.1,2.8-3.9,5.5-5.9,8c-0.6,0.8-0.7,1.5-0.1,2.4c5.4,9,10.7,18,16,27
				c0.4,0.6,0.7,1.1,1.6,0.9c2.6-0.8,4.6,0.2,6.1,2.3c0.6,0.8,1.1,0.7,1.9,0.4c14.1-4.5,28.1-8.9,42.2-13.3c1.7-0.5,2.6-1.2,2.1-3.3
				C127.8,121.3,106.5,113.2,85.1,105.1z M381.6,216.4c10.9,24.3,21.8,48.7,32.9,73.5c1.2-2.8,2.7-4.7,5.2-5.3
				c1.5-0.3,1.6-1,1.6-2.3c0-16.5,0-32.9,0-49.4c0-3.6,0-3.6-3.4-5c-1.4-0.6-2.6-0.8-4.2,0c-3.8,2-8.4-0.1-9.8-4.3
				c-0.4-1.2-1-1.8-2.2-2.3c-5.1-2-10.3-4-15.3-6.3C384.3,214.2,382.9,214.1,381.6,216.4z M146,327.3c1.5,0.4,2.3,0.1,2.9-1.5
				c6.9-21.2,13.8-42.3,20.9-63.4c0.9-2.6,1-4.6-1.4-6.2c-0.1,0-0.1-0.1-0.3-0.2c-11.4,5-22.9,10-34.3,15c0.3,3.1-0.1,4.7-2,6.1
				c-1.1,0.8-1.1,1.5-0.7,2.6c1.6,5.1,3.2,10.2,4.8,15.2C139.3,305.7,142.7,316.5,146,327.3z M239.5,434.7c8.4,4,16.7,7.9,24.9,11.9
				c0.8,0.4,1.1-0.1,1.5-0.6c1.3-1.7,3-2.7,5.1-3.1c2.9-0.6,5.2,0.5,7.5,2c0.6-0.4,1.2-0.8,1.8-1.2c13.3-9.7,26.5-19.3,39.9-28.9
				c1.8-1.3,2.3-2.4,0.9-4.3c-6.4,0.6-12.9,1.1-19.3,1.7c-3.5,0.4-6.9,0.3-10.3,1.4c-13.1,4.3-26.2,8.5-39.3,12.8
				c-4.1,1.3-8.1,2.7-12.1,4C239.9,431.9,240,433.2,239.5,434.7z M378.3,352.4c-0.4-0.3-0.5-0.4-0.6-0.4
				c-18.1-3.4-36.3-6.8-54.4-10.2c-0.7-0.1-1.4-0.5-1.9,0.5c-0.5,0.9-0.9,1.5-0.2,2.6c2,3.3,3.8,6.6,5.7,9.9
				c5.9,10.3,11.8,20.6,17.6,31c0.4,0.7,0.6,1.8,1.9,1.3c2.1-0.7,4.2-0.3,6.3,0.6C361.2,375.9,369.7,364.2,378.3,352.4z M236,30.1
				c10.6,3.4,21.1,6.9,31.6,10.3c0.7,0.2,1.3,0.2,2,0.1c8-1.5,16.1-3.1,24.1-4.7c0.1-0.5,0.1-0.8,0.1-1.1c0.4-3.4,2.4-5.8,5.4-6.6
				c3.3-0.9,6.2,0.2,8.2,3.2c0.7,1.1,1.5,1,2.4,0.9c5.7-0.5,11.5-1.1,17.2-1.7c0.4,0,1,0.1,1.1-0.9c-40.5-6.4-81-12.8-121.5-19.3
				c-0.2,1.1-0.9,1.9,0.2,2.7c5.2,3.8,10.4,7.6,15.6,11.5c2.8-2.5,5.9-3.3,9.3-1.6C234.6,24.3,235.9,26.8,236,30.1z M97.7,154.3
				c-1.5,0.6-2.6-1.7-4.3,0.1c-6.8,7-13.8,13.9-20.8,20.8c-0.8,0.8-0.8,1.3-0.3,2.3c1.1,2,0.9,4.1-0.5,5.8c-0.9,1.1-0.7,1.8,0,2.8
				c8.6,12.9,17.2,25.8,25.8,38.7c1.2,1.8,2.4,3.5,3.6,5.3c0.2-0.1,0.4-0.1,0.6-0.2C100.5,204.9,99.1,179.8,97.7,154.3z
				 M347.6,150.7c22.1,6.4,44.1,12.7,66.3,19.1c-0.5-3.2,0.4-5.8,2.4-7.9c-7-9.7-13.9-19.2-20.8-28.7c-0.6-0.9-1.2-1-2.2-0.6
				c-5.1,1.8-10.2,3.6-15.3,5.3c-0.9,0.3-1.4,0.9-2,1.6c-1.8,2.8-4.9,4-8,3c-1.4-0.4-2.5-0.3-3.7,0.1c-5,1.8-10,3.6-15.1,5.2
				C347.6,148.4,347.1,149.1,347.6,150.7z M31,291.8c0.9-3.2,2.5-5.6,5.6-6.7c1-0.3,0.8-1,0.8-1.6c0-23.3,0-46.6,0-69.9
				c0-0.7,0-1.3-0.6-1.8c-5.1-3.7-10.2-7.5-15.4-11.3c-1.4,1.2-2.9,2-4.4,2.7C21.6,232.8,26.3,262.3,31,291.8z M84.7,265.5
				c-6.5-8.9-12.9-17.7-19.2-26.6c-1.7-2.4-3.2-4.1-6.3-3.3c-0.1,0-0.3,0.1-0.5,0.1c-5.5,16.4-10.9,32.9-16.4,49.3
				c0.9,1.2,1.9,0.7,2.9,0.3c9.7-3.7,19.4-7.3,29.1-11c2.9-1.1,5.8-2.2,8.7-3.3C82.6,268.9,83.4,267.2,84.7,265.5z M93.2,273.8
				c14.5,15.6,28.9,31.3,43.4,47c2.1,2.3,4.3,4.6,6.4,6.9c0.3,0.3,0.6,0.8,1.2,0.5c0.6-0.3,0.4-0.8,0.2-1.3
				c-0.1-0.5-0.3-0.9-0.4-1.4c-3.1-10-6.2-19.9-9.3-29.9c-1.8-5.8-3.6-11.5-5.5-17.3c-4,0.2-6.1-1.7-6.9-5.5
				c-8.3-0.6-16.6-1.1-24.9-1.8C95.3,270.9,93.6,270.8,93.2,273.8z M436.1,135.9c-0.2,0-0.4,0-0.6,0.1c0,30.7,0,61.4,0,92
				c1.9,0.5,1.5-1.9,2.8-2.2c-0.4,1.9-0.1,3.4,1.7,4.6c0.9,0.6,1.4,1.8,1.7,3c0.8,2.8-0.2,5.2-2,7.4c3.9,5.2,7.9,10.3,11.6,15.5
				c1.2,1.7,2.2,1.9,3.9,0.5C448.9,216.6,442.5,176.2,436.1,135.9z M167.8,252c-1.2-0.3-2.5-0.7-3.8-1c-18.9-5-37.7-10.1-56.6-15.1
				c-0.6-0.2-1.3-0.7-1.9,0c-0.4,0.6,0.1,1,0.4,1.5c6.4,9.7,12.8,19.4,19.2,29.1c0.4,0.6,0.7,1,1.5,0.8c2.9-1.1,5,0.3,6.9,2.4
				c10.9-4.8,21.7-9.5,32.5-14.2C167.6,254.8,168.2,253.9,167.8,252z M399.3,375.9c1.1-0.1,1.1-0.8,1.4-1.2
				c2.8-5.4,5.5-10.8,8.3-16.3c14.3-28.1,28.7-56.2,43-84.4c0.3-0.6,1.2-1.2,0.2-2c-0.9-0.7-1.4,0.2-1.9,0.6
				c-5.8,4.3-11.6,8.7-17.4,13.1c-2.1,1.5-3.9,2.7-3.2,6.1c0.7,3.7-1.9,6.2-5.2,7.6c0.2,1.4-0.8,5.2-1.9,6.8c-1,1.4-2.6,1.2-4.1,1.6
				C412.1,330.5,405.7,353.1,399.3,375.9z M143,430.2c40,6.3,80,12.7,120.2,19c-0.1-0.7-0.3-0.8-0.6-0.9c-8.3-3.1-16.6-6.3-24.9-9.4
				c-0.9-0.3-1.5,0-2.3,0.3c-3.9,1.7-8.2,0-10-3.9c-0.4-1-1.1-1.5-2-1.8c-7.5-2.8-15.1-5.6-22.6-8.5c-1-0.4-1.7-0.4-2.7,0.5
				c-2.5,2.3-6.4,1.8-8.3-1c-0.8-1.2-1.6-1.4-2.8-1.2c-14.3,1.8-28.5,3.6-42.8,5.3C143.2,428.6,142.7,429,143,430.2z M403.3,220.5
				c1.8-5.4,5.6-7.7,10-6.1c4.5,1.6,5.8,5.8,3.5,11.6c1.4,0.6,2.8,1.4,4.4,1.7c0-0.3,0.1-0.5,0.1-0.7c0-15.7,0-31.4,0-47.1
				c0-0.8-0.1-1.4-0.9-1.8c-1-0.5-1.4,0.4-1.9,0.8c-6.4,5.3-12.8,10.7-19.2,16c-5.2,4.4-10.5,8.8-15.8,13.2c0.9,1.5,0.8,3.2,0.9,4.7
				C390.7,215.4,396.9,217.9,403.3,220.5z M188.4,421.6c0.8-1.7-0.5-1.8-1.4-2.1c-19.3-6.3-38.6-12.6-58-18.8c-3.1-1-6.2-2-9.4-3
				c-0.6,1.5-1.5,2.6-2.5,3.6c4.3,6.7,8.5,13.2,12.7,19.7c6.1-3,10.2-1.1,13.4,6.3C158.2,425.3,173.3,423.4,188.4,421.6z
				 M344.7,73.6c-5.3,15.4-10.6,30.7-15.8,45.9c-0.4,1,0,1.5,0.9,2c12.8-8.5,25.6-17,38.6-25.6c-5.8-8-11.5-15.8-17.1-23.6
				C349.2,73.5,347.1,74.1,344.7,73.6z M77.5,115.6c-1.6,2.2-3,4.1-4.4,6.1c-0.4,0.5-0.4,1.1-0.5,1.7c-1.3,16.5-2.5,33.1-3.8,49.6
				c-0.1,0.7-0.3,1.4,0.7,1.8c1,0.5,1.4,0.1,2.1-0.5c7-7,14-14,20.9-20.9c0.4-0.4,1-0.8,0.6-1.5c-1.6-2.9-0.8-5.4,1.3-7.6
				C88.9,134.7,83.3,125.3,77.5,115.6z M256.5,47.5c0.2,0.1,0.4,0.3,0.6,0.4c9.3,6.1,18.7,12.2,28,18.3c1.5,1,2.9,1.9,4.9,1.2
				c1-0.4,2.3-0.1,3.2,0.5c2.1,1.4,4.3,2.3,6.7,3c1.1,0.3,1.7,0.3,2.5-0.3c3.5-2.6,7.1-5.1,10.7-7.6c1.9-1.4,3.8-2.7,5.8-4.2
				c-0.5-0.3-0.8-0.4-1-0.5c-16-5.2-32.1-10.4-48.1-15.6c-1.1-0.4-2.1-0.3-3.2-0.1c-2.3,0.4-4.5,1-6.8,1.3
				C257.5,44,256.3,44.9,256.5,47.5z M254,49.8c-1.6,0.8-3.1,1.2-4.6,0.5c-1.4-0.7-1.9,0-2.7,0.9c-5.9,7.4-11.8,14.8-17.8,22
				c-1.4,1.7-2,3.1-0.4,5c13.3,0.2,26.8,0.3,40.3,0.7c2.7,0.1,4.4-0.3,5.2-3c0-0.1,0.1-0.2,0.2-0.5C267.5,67,260.8,58.5,254,49.8z
				 M393.8,130.8c-1.8-2.5-3.5-4.8-5.2-7.2c-0.5-0.8-1.2-0.6-2-0.6c-9.2,0.4-18.5,0.9-27.7,1.3c-9.2,0.4-18.4,0.8-27.7,1.3
				c-0.2,1.6-0.9,2.8-1.8,4c3.2,4.9,6.4,9.8,9.7,14.8c3.3-1,6-0.3,7.9,2.7c6-2.1,11.9-4.2,17.8-6.2c-2.5-3.5-2.9-6.4-1.2-9.2
				c1.5-2.7,4.5-4.1,7.7-3.5c4.3,0.9,6,4,6.1,8.3C382.9,134.6,388.2,132.8,393.8,130.8z M323.7,130.9c-9.1,19.2-18.1,38.4-27.2,57.7
				c1.4,0.1,1.8-0.6,2.3-1.1c2.9-2.6,5.8-5.2,8.7-7.8c9.4-8.4,18.7-16.9,28-25.3c0.5-0.4,1.5-0.8,1.1-1.7c-1.3-2.7-0.7-5.2,1.2-7.3
				c-3.2-4.9-6.4-9.8-9.6-14.7C326.7,131.1,325.3,131.3,323.7,130.9z M37.1,319.4c0.5,0.2,1,0.4,1.4,0.6c4.2,1.7,6.4,6.1,4.9,10.4
				c-0.5,1.3-0.1,1.9,0.9,2.6c6.4,4.5,12.7,9.1,19,13.6c4.8,3.4,9.6,6.9,14.4,10.3c1.1-1.2,2.3-2.1,3.6-2.9c-0.4-0.6-0.6-1.1-1-1.5
				c-12.3-17-24.7-34-37-51c-1.2-1.7-2.4-2.4-4.3-1.2C38.4,306.6,37.8,312.9,37.1,319.4z M53.8,224.5c-4.9-3.6-9.8-7.2-14.8-10.9
				c0,23.9,0,47.4,0,71c0.6-0.2,1.2,0.4,1.8,0c0.4-1.1,0.8-2.3,1.2-3.4c4.9-14.7,9.8-29.5,14.6-44.2c0.2-0.7,1-1.4-0.1-2.3
				C52.8,231.7,52.3,229.5,53.8,224.5z M369.3,97c-12.7,8.4-25.2,16.7-37.8,25c-0.5,0.3-1.1,0.6-0.7,1.4c0.4,0.9,1.1,0.6,1.8,0.6
				c15.4-0.7,30.8-1.4,46.2-2.1c2.7-0.1,5.4-0.3,8.3-0.5C381,113.1,375.2,105.1,369.3,97z M282.8,443.7c0.1,0.2,0.3,0.4,0.4,0.6
				c35.1-17.9,70.1-35.8,105-53.5c-0.1-1.8-1-1.7-2.2-1.5c-4.9,0.8-9.9,1.5-14.8,2.2c-4.9,0.8-9.8,1.6-14.7,2.3
				c-0.1,0.3-0.2,0.5-0.2,0.7c0.1,5.5-6.7,10.2-12.4,5.9c-0.8-0.6-1.3-0.4-2,0.1c-1.8,1.4-3.6,2.8-5.5,4c-1.1,0.7-1.2,1.4-0.9,2.7
				c1.4,4.5-1.3,8.7-5.9,9.4c-2.6,0.4-4.7-0.7-6.6-2.3C309.6,424.2,296.2,433.9,282.8,443.7z M451.6,259c-4.2-5.5-8.3-11-12.4-16.5
				c-0.4-0.5-0.7-0.8-1.3-0.5c-1.4,0.7-3,0.6-4.8,0.6c-3.1,13.9-6.2,27.8-9.3,41.7c1.9,0.6,3.3,1.6,4.7,2.9
				c7.4-5.6,14.8-11.2,22.1-16.7C448,266.3,448.4,262.6,451.6,259z M67.1,174.1c1.3-16.3,2.5-32.5,3.8-49c-0.5,0.4-0.7,0.5-0.9,0.7
				C62,136.8,54,147.9,45.9,159c-0.4,0.5-0.6,0.9-0.1,1.5c2,2.4,2.1,5.1,1.2,7.9c5.2,2.8,10.3,5.5,15.4,8.3
				C63.7,175.1,65.3,174.4,67.1,174.1z M40.7,334.5c0.2-0.1,0.5-0.2,0.7-0.3c21.4,21.4,42.8,42.8,63.7,63.7
				c-1.1-2.6-0.7-5.8,1.9-8.6c-5.7-7.9-11.4-15.7-17.2-23.6c-2.8,2.8-5.9,3.7-9.3,1.9c-3.3-1.8-4.4-4.7-3.7-8.3
				c0.2-0.8-0.1-1.2-0.8-1.7c-11.1-8-22.2-16-33.3-23.9c-0.2-0.1-0.5-0.2-0.6-0.2C41.6,333.8,41.1,334.1,40.7,334.5z M94.4,269.5
				c8,0.6,15.8,1,23.6,1.8c2.8,0.3,5.2,0.2,6.2-2.9c0-0.1,0-0.1,0.1-0.4c-6.6-10-13.2-20.1-19.9-30.2c-0.9-1.4-2.1-1.2-2.7,0.3
				c-3.5,8.8-6.9,17.6-10.4,26.5C93.1,265.9,94.2,267.5,94.4,269.5z M427.4,122.6c-12.8-9.8-25.4-19.5-38.1-29.2
				c-0.1,0.2-0.3,0.3-0.4,0.5c0.2,0.3,0.3,0.6,0.5,0.9c5.2,7,10.5,14,15.7,21.1c0.7,1,1.3,0.7,2.2,0.4c3.5-1.1,6.9,0.3,8.6,3.4
				c1.6,2.9,1,6.7-1.7,8.7c-1.7,1.2-1.9,2.2-1.1,3.8c0.2,0.4,0.2,0.8,0.4,1.2c2.5,8.5,4.9,16.9,7.3,25.4c0.3,0.9,0.6,1.4,1.6,1.4
				c0.8,0,1.1-0.3,1.3-0.9c2.4-7.7,4.9-15.3,7.4-23c0.2-0.7,0.2-1.2-0.6-1.7C426,131.5,425.1,128,427.4,122.6z M392.3,361.6
				c-1.3-0.2-2.6-0.3-3.5-1.1c-1.1-0.9-1.8-0.5-2.8,0.4c-9.7,9-19.5,18.1-29.3,27c-1.6,1.5-2.2,2.6-0.5,4.4
				c10.2-1.6,20.5-3.2,30.8-4.7c0.1-5.4,1.4-7.4,6.9-10.1C393.4,372.2,392.9,367,392.3,361.6z M46.4,169.7c-0.8,0.7-1.4,1.5-2.2,1.9
				c-1.1,0.6-1.1,1.3-0.8,2.3c5,15.2,10,30.4,14.9,45.7c0.4,1.4,1.1,1.8,2.4,1.1c1.7-11.7,3.4-23.4,5.1-35.1c-3.3-1.3-4.8-3.5-4.3-7
				c0.1-0.7-0.2-1-0.8-1.3C56,174.9,51.2,172.3,46.4,169.7z M200.1,421.3c0,0.3,0,0.6-0.1,1c8.2,2.7,16.3,5.3,24.5,8
				c4.3-7.4,10.3-7.9,15-1.2c14.9-4.8,29.8-9.7,44.7-14.5c-0.1-0.2-0.1-0.4-0.2-0.7C256.1,416.2,228.1,418.8,200.1,421.3z
				 M370.6,96.2c6,8.2,11.8,16.3,17.7,24.4c0.4,0.6,0.9,0.9,1.7,0.8c4-0.2,7.9-0.4,11.9-0.6c1.4-0.1,2.9-2.8,2.1-3.9
				c-6.2-8.3-12.5-16.6-18.7-25c-0.4-0.5-0.7-1.1-1.5-0.7c-1.2,0.5-2.3,0.1-3.3-0.5c-0.6-0.4-1.1-0.3-1.7,0.1
				C376.1,92.5,373.4,94.3,370.6,96.2z M272.7,41.4c-0.1,0.7,0.3,0.7,0.6,0.8c15.4,5,30.9,10,46.3,15.1c0.6,0.2,1.1,0.2,1.7-0.2
				c2.5-1.9,5.1-3.6,7.8-5.6c-1.1-0.9,0.1-2.5-1.4-3.2c-6.7-3.1-13.4-6.1-20-9.1c-4.4,5.4-11.1,4.4-13.8-1.8
				C286.9,38.6,279.8,40,272.7,41.4z M99,233.5c0.9-1.6,0.8-2.8-0.1-4.2c-9.6-14.3-19.1-28.7-28.7-43c-0.2-0.4-0.4-0.9-1.3-0.6
				c3.7,15.3,7.4,30.6,11.1,45.8C86.5,232.1,92.8,232.8,99,233.5z M39.1,173.2c-0.1,0.2-0.2,0.3-0.2,0.4c0,12.3,0,24.5,0,36.8
				c0,0.7,0.1,1.2,0.7,1.6c5.1,3.8,10.2,7.5,15.3,11.3c0.9-0.6,1.6-1.2,2.4-1.8c-5.3-16.1-10.5-32.2-15.8-48.3
				C40.7,172.9,39.9,172.9,39.1,173.2z M219.8,92c0.6-2.4,1-4.6,1.6-6.8c0.3-1,0.3-1.8-0.9-2.3c-1.3-0.5-2.1-1.6-2.2-3
				c-0.2-1.5-1-1.8-2.2-2.1c-5.1-1.1-10.2-2.4-15.4-3.5c-2.5-0.5-5-1.4-7.7-1.6c0.6,5.6-2,8.6-7.7,9.7c9.7,4.4,18.8,8.6,28,12.8
				C214.8,92.6,217,91.8,219.8,92z M433.3,223.5c1.1-4.6,0.7-86.8-0.3-88.1c-2.7,8.6-5.4,16.9-8.1,25.3c3.8,2.3,5.2,5.5,3.9,9.8
				c-0.1,0.4-0.1,0.6,0.1,0.9c1.3,2.7,0.7,5.5-1.8,6.8c-1.4,0.7-1.3,1.5-1.1,2.7c1.6,9.3,3.2,18.5,4.7,27.8
				C431.5,213.7,432.4,218.6,433.3,223.5z M224.2,96.3c16-5.1,31.8-10.1,47.7-15.2c0-0.3-0.1-0.5-0.1-0.8c-2.1,0-4.3,0-6.4,0
				c-12.1-0.2-24.1-0.5-36.2-0.7c-0.9,0-1.2,0.4-1.5,1.1c-0.6,1.5-1.8,2.5-3.3,2.8c-1.1,0.2-1.3,0.8-1.5,1.6c-0.5,2.1-1,4.3-1.5,6.4
				c-0.1,0.6-0.4,1.2,0.3,1.6C222.9,93.7,223.4,94.9,224.2,96.3z M37.4,210.5c0-5,0-9.4,0-13.8c0-7.5,0-15.1,0-22.6
				c0-1.1-0.3-1.6-1.3-2c-1.1-0.5-1.3,0.4-1.8,0.9c-0.4,0.4-0.7,0.8-1.1,1.2c-4.1,4.8-8.2,9.7-12.3,14.6c2.5,3,3.2,6.2,1.5,9.7
				c-0.4,0.8,0.1,1.1,0.6,1.5C27.7,203.3,32.3,206.7,37.4,210.5z M421.1,115.8c-23.9-23.9-48-48-71.9-71.9c-0.1,0.3,0.5,0.6,0.8,1
				c10.4,12.5,20.8,24.9,31.3,37.4c0.5,0.6,1,0.9,1.9,1.1c2.6,0.4,3.9,2,3.5,4.6c-0.2,1.2,0.2,1.7,1,2.4
				c10.7,8.2,21.4,16.4,32.2,24.6C420.3,115.2,420.7,115.9,421.1,115.8z M78.6,231.2c-3.7-15.2-7.3-30.1-10.9-45c-0.1,0-0.3,0-0.4,0
				c-1.7,11.6-3.4,23.2-5.1,34.8c4.3,1.5,5.9,4.6,5.5,8.9C71.3,230.4,74.7,230.8,78.6,231.2z M87.9,263.8c1.8,0.8,2.4,0.1,2.9-1.3
				c3.1-8.1,6.3-16.1,9.5-24.2c0.8-2.2,0.3-3.2-2-3.5c-4.4-0.5-8.8-1-13.3-1.4c-1.5-0.1-2.9-0.7-4.5-0.3
				C83,243.4,85.4,253.7,87.9,263.8z M416,310.9c-0.9,0-0.9,0.4-1.1,0.7c-6.1,11.6-12.2,23.2-18.4,34.8c-0.6,1-0.2,1.5,0.6,2.2
				c3.1,2.6,3.5,6.7,1.1,10c-1.1,1.5-2.7,2.2-4.4,3c0.6,5.4,1.1,10.7,1.6,15.8c1.8,0.9,2-0.3,2.3-1.4c5.1-18,10.1-35.9,15.2-53.8
				C414,318.4,414.9,314.7,416,310.9z M414.2,305.4c-11.1,15.2-22.1,30.4-33.2,45.6c1.5,0.6,2.8,0.7,4.2,0.8c1.7-3.7,4.4-5.7,8.6-5
				c1.1,0.2,1.2-0.7,1.5-1.3c6.6-12.5,13.2-25,19.8-37.5C415.7,307,415.7,306.2,414.2,305.4z M423,179.2c-0.1,0.1-0.1,0.2-0.1,0.3
				c0,16,0,32-0.1,47.9c0,0.5-0.1,1,0.5,1.2c2.4,0.6,4.6,3.3,7.5,0.5c1.1-1.1,1.4-1.7,1.2-3.1c-1.4-7.6-2.6-15.2-3.9-22.8
				c-1.3-7.5-2.5-14.9-3.9-22.4C424.2,180.2,424.4,179.1,423,179.2z M85.9,264.7c0.6-0.5,0.6-0.8,0.5-1.1c-2.4-10-4.8-19.9-7.2-29.9
				c-0.2-0.8-0.7-1.1-1.4-1.2c-3.3-0.3-6.5-0.7-9.8-1c-0.5-0.1-0.9-0.1-1.3,0.4c-0.7,1-1.6,1.8-2.4,2.9
				C71.5,244.8,78.7,254.7,85.9,264.7z M410.8,130.2c-2,0.1-3.8-0.1-5.4-1.3c-0.4-0.3-0.8-0.3-1.3-0.2c-2.5,0.9-5.1,1.8-7.9,2.8
				c7.2,9.9,14.3,19.7,21.4,29.5c0.7-0.4,1.4-0.3,1.8-1C416.6,150.2,413.7,140.3,410.8,130.2z M369.7,95c2.9-1.9,5.6-3.7,8.2-5.4
				c0.6-0.4,0.7-0.9,0.8-1.6c0.1-1.7-0.5-2.7-2-3.6c-1.6-0.9-3.1-2-4.6-3c-6.1-4-12.2-8-18.3-12c-0.7,0.5-1,1.2-1.4,2
				C358.2,79.1,363.9,87,369.7,95z M423.1,230.2c0,16.3,0,32.4,0,48.8c0.3-0.5,0.5-0.6,0.5-0.7c2.6-11.6,5.2-23.3,7.8-34.9
				c0.1-0.6,0.2-1.2-0.5-1.6c-3.7-2.3-4.2-5.6-3.1-9.6C426.2,231.5,424.7,230.9,423.1,230.2z M328.4,32c-6.7,0.6-13.2,1.3-19.8,1.9
				c0.3,1.1,0.2,2,0,2.8c-0.2,0.7,0,1.1,0.7,1.4c6,2.7,12,5.5,18.1,8.2c2.4,1.1,4.7-0.3,5.2-2.8c0.3-1.3,0.4-2.7,0.7-4
				c0.2-0.8,0.1-1.2-0.7-1.6C330.4,36.6,329.1,34.6,328.4,32z M255.6,48.7c0.2,0.8,0.2,1.1,0.3,1.2c6.3,8,12.6,16.1,18.9,24.1
				c0.3,0.4,0.5,0.8,1.1,0.6c2.6-1.1,4.9-0.4,7.2,1.5c-0.2-3.1,0.9-5.4,3.1-7.4C276.1,62,266.1,55.5,255.6,48.7z M356.3,385.4
				c0.2,0.2,0.3,0.3,0.5,0.5c9.9-9.1,19.7-18.2,29.6-27.3c-1.2-1.6-1.4-3.4-1.7-5.2c-0.8-0.2-1.6-0.2-2.3-0.5c-1.8-0.7-2.9,0-4,1.6
				c-6.8,9.5-13.6,18.8-20.4,28.2C357.4,383.6,356.6,384.3,356.3,385.4z M141.2,60.8c-0.4,1.7,0.6,1.8,1.3,2.1
				c5.9,2.7,11.8,5.4,17.7,8.1c0.8,0.4,1.6,0.7,2.5,0.8c3.9,0.4,7.8,0.6,11.7,1.2c2.6,0.3,4.8,0.4,5.6-2.7c0-0.1,0.1-0.3,0.2-0.6
				C167.2,66.7,154.2,63.7,141.2,60.8z M104.1,75.4c-0.6,0.5-1.1,1-1.7,1.5C95.2,83.4,88,90.1,80.8,96.7c-1.2,1.1-0.8,4.7,0.6,5.5
				c2.3,1.3,3.1,1.2,4.6-1c5.8-8,11.7-16,17.5-24.1C103.9,76.7,104.5,76.3,104.1,75.4z M264.7,41.4c0-0.1,0-0.3,0-0.4
				c-9.6-3.1-19.2-6.2-29.2-9.5c0.3,1.2-1,1.9,0.1,2.7c3.4,2.6,6.9,5.1,10.3,7.6c3.6-4,8.1-3.6,10.9,1.2
				C259.5,42.5,262.1,41.9,264.7,41.4z M322.4,58.1c5.8,1.9,11.2,3.7,16.7,5.4c0.6-1,1.1-1.9,1.7-2.9c-1.9-2.2-3.8-4.4-5.6-6.6
				c-0.8-0.9-4.4-1.8-5.4-1.1C327.4,54.5,325.1,56.2,322.4,58.1z M109.4,402.2c5.8,5.8,12.2,12.1,18.3,18.2c0.1,0.3,0.1,0,0-0.2
				c-3.7-5.8-7.5-11.6-11.2-17.4c-0.3-0.5-0.7-0.8-1.3-0.5C112.9,403.1,110.7,402.9,109.4,402.2z M19.9,186.7
				c0.2,0.1,0.4,0.2,0.6,0.4c4.6-5.4,9.2-10.9,13.9-16.4c-1.9-2.1-2.4-4.5-2.1-7.1c-0.2,0-0.4-0.1-0.5-0.1
				C27.8,171.2,23.8,179,19.9,186.7z M402.3,122.3c-4.1,0.2-8,0.4-12.3,0.6c2,2.7,3.7,5.1,5.4,7.4c2.9-1,5.6-2,8.5-3
				C402.7,125.7,402.5,124.1,402.3,122.3z M133.5,68.2c0,0.2,0.1,0.4,0.1,0.7c7.5,0.7,14.9,1.5,22.4,2.2c0-0.2,0-0.3,0.1-0.5
				c-5.1-2.3-10.2-4.7-15.4-7C139.1,66.5,136.7,68,133.5,68.2z M32.1,295.6c-0.2,0.1-0.3,0.1-0.5,0.2c1.2,7.6,2.4,15.2,3.6,22.8
				c0.2,0,0.4,0,0.6,0c0.6-6.2,1.2-12.4,1.8-18.6C35,299.2,33.3,297.8,32.1,295.6z M321.2,409c0.3-2.3,1.4-4.1,2.6-5.9
				c-7.2,2.3-14.4,4.7-21.5,7c0,0.2,0.1,0.4,0.1,0.6C308.6,410.1,314.8,409.6,321.2,409z M334.1,404.5c2.3-1.7,4.6-3.3,6.8-5
				c0.6-0.4,1.3-0.8,0.8-1.6c-0.4-0.7-1.1-0.3-1.6-0.1c-3.4,1.1-6.7,2.2-10.1,3.3c-0.4,0.1-1.1,0.1-0.9,1.1
				C331,402.2,332.6,403.2,334.1,404.5z M131.3,68.6c0.1-0.2,0.2-0.4,0.3-0.5c-0.9-0.9-2.4-1.1-3-2.2c-1.4-3.1-3.6-2.2-5.8-1.3
				c-0.8,0.3-1.7,0.6-2.5,0.8c-1.3,0.2-1.3,1-0.9,2.1C123.4,67.8,127.3,68.2,131.3,68.6z M80.8,103.5c-0.7,3-2.4,5-5.2,6.1
				c0.7,1.1,1.3,2,2,3.3c2.1-2.9,4-5.5,6.1-8.4C82.6,104.1,81.8,103.8,80.8,103.5z M73,118.5c3.9-3.1,4-5.9,0.7-8.6
				C73.4,112.7,73.2,115.4,73,118.5z M339.1,55.9c2,3.5,2.8,4,4.2,2.9C342.1,57.8,341,56.8,339.1,55.9z M388.4,92.9
				c-0.1,0.8,0.2,0.9,0.8,0.9C389.1,93.2,388.8,93,388.4,92.9z M356,386.5c0.4-0.2,0.7-0.4,0.7-0.8c0-0.1-0.3-0.2-0.5-0.2
				C355.8,385.7,355.7,386,356,386.5z"/>
		</g>
		<g id="XMLID_619_">
			<path id="XMLID_668_" class="st15" d="M328,528.9v-7l9.1-42.2h11.5l-10.5,49.3H328L328,528.9z M328,486.7l1.5-7.3H328V486.7z
				 M328,479.4v7.3l-0.2,1.4h-1v-8.6H328L328,479.4z M328,521.9v7h-1.3v-0.7L328,521.9L328,521.9z M326.7,493v-0.6h0.1L326.7,493z
				 M326.7,479.4v8.6h-10.5l1.8-8.6H326.7L326.7,479.4z M326.7,492.4v0.6l-7.8,35.9H309v-7.2l6.2-29.3H326.7L326.7,492.4z
				 M326.7,528.3l-0.2,0.7h0.2V528.3L326.7,528.3z M309,486.8v-7.2h1.4L309,486.8z M309,479.7v7.2l-9.1,42.1h-11.5l0.9-4.3h-0.2
				c-1.3,1.6-2.9,2.8-4.7,3.7v-7.2c4-0.9,6.7-4.4,8-10.4c0.3-1.5,0.6-3,0.6-4.3c0-4.3-2.1-6.4-6.3-6.4c-0.8,0-1.5,0.1-2.3,0.2v-8.8
				c0.1,0,0.2,0,0.2,0c5.7,0,9.1,1.8,10.4,5.4h0.2l3.7-17.3H309L309,479.7z M309,521.7l-1.5,7.2h1.5V521.7z M284.4,491.5v8.8
				c-4,0.9-6.7,4.4-8,10.5c-0.3,1.6-0.5,3.1-0.5,4.4c0,4.1,2,6.2,6.2,6.2c0.9,0,1.6-0.1,2.3-0.2v7.2c-2.3,1.1-4.8,1.7-7.8,1.7
				c-4.2,0-7.4-1.2-9.6-3.6c-2.1-2.2-3.2-5.5-3.2-9.6c0-1.9,0.2-4,0.7-6.2c1.2-5.9,3.6-10.5,7.2-14
				C275.2,493.3,279.4,491.5,284.4,491.5L284.4,491.5z M240.5,529.8v-8c4-1,6.8-4.8,8.1-11.1c0.3-1.8,0.6-3.2,0.6-4.6
				c0-4.4-2.1-6.7-6.2-6.7c-0.9,0-1.7,0.1-2.5,0.3v-8c1.3-0.2,2.7-0.2,4.2-0.2c11.1,0,16.8,4.4,16.8,13.3c0,1.8-0.3,3.8-0.7,6
				C258.2,522.2,251.5,528.6,240.5,529.8z M240.5,491.6v8c-4,1-6.8,4.7-8.1,10.9c-0.4,1.9-0.6,3.4-0.6,4.8c0,4.5,2.1,6.8,6.4,6.8
				c0.7,0,1.5-0.1,2.3-0.2v8c-1.3,0.2-2.5,0.3-4,0.3c-6.7,0-11.5-1.6-14.2-4.8v-21.1C225.7,496.8,231.8,492.6,240.5,491.6
				L240.5,491.6z M222.3,486.4v-7.3c0.9,0,1.8,0.1,2.8,0.1l-1.6,7.1C223.4,486.4,222.9,486.4,222.3,486.4z M222.3,479.1v7.3
				c-0.1,0-0.2,0-0.2,0c-0.9,0-1.3,0-1.4,0c-1.8,0-3,0.2-3.7,0.8c-0.7,0.5-1.1,1.3-1.3,2.4l-0.6,2.8h6.9l-1.7,7.9h-7l-6.1,28.6h-9.6
				v-9.1l4.1-19.5h-4.1v-7.9h5.9l1.1-5.2c1.1-5.5,5.5-8.3,13.1-8.3C219.1,478.8,220.7,478.9,222.3,479.1L222.3,479.1z M222.3,504.2
				c-0.8,1.9-1.5,4-1.9,6.3c-0.6,2.3-0.8,4.4-0.8,6.2c0,3.6,1,6.4,2.8,8.6V504.2L222.3,504.2z M197.6,486.4c0.2,0,0.3,0,0.3,0
				l1.6-7.1c-0.7,0-1.3-0.1-1.9-0.1V486.4z M197.6,479.1v7.3c-0.2,0-0.7,0-1.1,0c-0.8,0-1.3,0-1.4,0c-1.8,0-2.9,0.2-3.6,0.8
				c-0.6,0.5-1.1,1.3-1.4,2.4l-0.6,2.8h6.9l-1.7,7.9h-6.8l-6.1,28.6h-11.6l6-28.6h-6l1.7-7.9h6.1l1.1-5.2c1.1-5.5,5.5-8.3,13.2-8.3
				C193.8,478.8,195.7,478.9,197.6,479.1L197.6,479.1z M197.6,492.4h-0.2l-1.7,7.9h1.9V492.4L197.6,492.4z M197.6,519.8l-2,9.1h2
				V519.8L197.6,519.8z M144.3,528.3V522c1.1-0.2,2.2-0.7,3.1-1.2c2.1-1.3,3.4-3.1,3.9-5.5l1.1-4.4c-0.8,0.4-2.4,0.8-4.7,1.1
				c-1.1,0.3-2.2,0.4-3.4,0.6v-5.8c2.8-0.2,4.4-0.4,4.6-0.4c1.8-0.2,3-0.7,3.7-1.2c0.7-0.6,1.2-1.5,1.5-2.8c0-0.3,0-0.6,0-0.8
				c0-2.1-1.8-3.1-5.4-3.1c-1.7,0-3.2,0.2-4.4,0.7v-7.5c1.9-0.2,4.1-0.4,6.4-0.4c5.3,0,9.2,0.7,11.6,2.1c2.3,1.3,3.3,3.4,3.3,6.3
				c0,1-0.1,2.3-0.4,3.6l-4.1,19.3c-0.4,1.8-0.2,2.8,0.6,3.2c0.5,0.2,0.8,0.3,0.9,0.2c-0.2,1.9-0.2,2.8-0.2,2.8c0-0.1-1.7,0-5.1,0.2
				c-3.4,0.2-5.4,0.2-5.9,0.2c-1-0.6-1.6-1.4-1.6-2.8c0-0.3,0-0.5,0.1-0.8l0.1-1h-0.2C148.1,526.3,146.3,527.5,144.3,528.3z
				 M124.2,491.5c0.1,1.2,0.3,2.5,0.3,3.9c0,1.4-0.1,2.9-0.3,4.6V491.5L124.2,491.5z M144.3,491.7v7.5c-2,0.8-3.3,2.3-3.9,4.5h-11.1
				c1.2-4.3,3.3-7.3,6.5-9.3C137.9,493.1,140.8,492.2,144.3,491.7L144.3,491.7z M144.3,506.9v5.8c-0.6,0.1-1.4,0.2-2.1,0.3
				c-3.3,0.5-5.2,2.2-5.7,4.8c-0.1,0.4-0.2,0.8-0.2,1.1c0,2.3,1.5,3.5,4.7,3.5c1.2,0,2.3-0.2,3.3-0.4v6.3c-2.6,1.1-5.6,1.7-9,1.7
				c-6.4,0-10.1-1.9-11.1-5.7V519c0,0,0-0.1,0-0.2c1.4-6.5,6.3-10.3,14.8-11.3C141.1,507.3,142.9,507,144.3,506.9z M123.4,504.6
				c-1.6,7.7-4.5,13.6-8.6,17.7c-4.1,4.1-9.2,6.3-15.4,6.6v-9.1c2.3-0.6,4.3-1.7,5.8-3.5c2.4-2.5,4.1-6.5,5.2-12
				c0.7-2.7,0.9-5.1,0.9-7.1c0-3-0.6-5.1-2.1-6.4c-1.4-1.3-3.5-1.9-6.5-1.9h-3.3v-8.7h8.8c9.4,0,14.8,3.8,16.1,11.3v8.5
				C124,501.5,123.7,503,123.4,504.6L123.4,504.6z M124.2,519c-0.2,1.1-0.3,2.1-0.3,2.9c0,0.9,0.1,1.7,0.3,2.4V519z M99.4,528.9
				c-0.6,0-1,0-1.6,0h-25l10.4-48.7h16.1v8.7h-5.3l-6.7,31.2h8.2c1.4,0,2.7-0.2,3.8-0.4V528.9z"/>
			<path id="XMLID_645_" class="st16" d="M321.1,555.3L321.1,555.3c1.1-2.2,2.7-7.3,4.6-15.2c1.1-4.1,1.9-7.3,2.4-9.7
				c1.2-4.4,2.7-7.8,4.4-10.2c1.8-2.4,3.6-3.6,5.6-3.6c1.1,0,1.9,0.3,2.5,1c0.6,0.6,1,1.5,1,2.5c0,1.1-0.3,2.4-1,3.4
				c-0.7,1.1-1.7,2.3-3.1,3.4c-0.6,0.5-1.1,0.9-1.7,1.1c-0.5,0.3-0.8,0.5-1,0.5c-0.1,0-0.2,0-0.2-0.1c-0.1,0-0.1-0.1-0.1-0.1
				c0-0.1,0.2-0.1,0.4-0.4c2.7-2.1,4-4.4,4-6.7c0-1-0.2-1.8-0.7-2.5c-0.4-0.7-0.9-1-1.4-1c-0.7,0-1.6,0.9-2.8,2.7
				c-1,1.8-1.8,3.9-2.4,6.3l-0.3,1.3c-2.6,12.1-5.2,20.3-7.8,24.9h6.6c1.7,0,3.1-0.4,4.1-1.1c1-0.7,1.5-1,1.5-1c0.1,0,0.1,0,0.1,0.1
				c0.1,0,0.1,0.1,0.1,0.2c0,0.2-0.1,0.6-0.6,1c-0.4,0.5-1,1-1.8,1.8c-0.9,0.6-1.8,1.2-2.8,1.4c-0.9,0.3-2.4,0.5-4.4,0.5
				c-1.2,0-2.3-0.1-3.1-0.1C322.4,555.5,321.7,555.5,321.1,555.3L321.1,555.3z M321.1,551.3c0.1-0.1,0.1-0.2,0.1-0.2
				c0-0.1,0-0.2-0.1-0.2V551.3z M321.1,551v0.3c-0.2,0.6-0.8,1.4-2,2.4c-1.4,1.3-2.6,1.9-3.7,1.9c-1,0-1.9-0.4-2.4-1
				c-0.6-0.7-1-1.8-1.2-3.4c-1,1.2-2,2.1-2.8,2.8v-1.7c0.6-0.2,1.2-0.7,1.8-1.3c1-1.1,1.9-2.5,2.7-4.3c0.8-1.8,1.2-3.2,1.2-4.3
				c0-0.6-0.2-1.1-0.5-1.4c-0.2-0.3-0.8-0.4-1.5-0.4c-1.4,0-2.6,0.2-3.7,0.9l0,0v-1c1.4-0.6,2.8-0.9,4.4-0.9c1.3,0,2.4,0.3,3.1,1
				c0.7,0.7,1.1,1.5,1.1,2.7c0,0.7-0.3,1.9-0.9,3.5c-0.6,1.6-1.5,3.6-2.6,6h2c1.6,0,2.9-0.6,4.1-1.5c0.3-0.3,0.6-0.5,0.6-0.5
				C320.9,550.8,321,550.9,321.1,551L321.1,551L321.1,551z M321.1,555.2C321.1,555.3,321.1,555.3,321.1,555.2L321.1,555.2
				L321.1,555.2z M308.9,540.5v1c-1,0.6-2.2,1.6-3.2,3c-0.8,1.1-1.4,2.2-1.9,3.1c-0.4,1-0.7,1.8-0.7,2.7c0,0.9,0.2,1.4,0.7,1.8
				c0.4,0.3,1.1,0.6,2.3,0.6c1.2,0,2.1-0.2,2.7-0.4l0.1-0.1v1.7c-0.3,0.2-0.6,0.5-1,0.7c-1.1,0.6-2.2,1-3.4,1c-1.4,0-2.4-0.4-3.1-1
				c-0.7-0.7-1-1.8-1-3.2c0-1.5,0.4-2.9,1.1-4.3c0.7-1.4,1.8-2.7,3.2-4C306,542,307.4,541.1,308.9,540.5
				C308.9,540.5,308.9,540.5,308.9,540.5L308.9,540.5z M267.2,555.7V553h4.2c0.7-1.1,1.2-2.2,1.6-3.1c0.3-1,0.5-2,0.5-3
				c0-1.8-0.5-3.2-1.4-4.4c-1-1-2.2-1.6-3.7-1.6c-0.3,0-0.7,0-1.1,0.1v-1c0.9-0.2,1.9-0.3,2.8-0.3c2,0,3.6,0.5,4.8,1.4
				c1.1,1,1.7,2.3,1.7,4c0,1.2-0.3,2.5-0.9,3.9c-0.7,1.4-1.5,2.6-2.7,3.6c-1.1,1.1-2.4,2-3.6,2.6
				C268.6,555.4,267.9,555.6,267.2,555.7L267.2,555.7z M277.9,555.3c1.5-3.5,2.5-6.6,3.1-9.1c0.6-2.6,0.9-5,0.9-7.3v-0.8
				c0.9,0.5,1.5,1.1,1.9,1.9c0.4,0.8,0.6,1.8,0.6,3.1c0,0.3,0,0.9-0.1,1.6c0,0.1,0,0.3,0,0.3c1.7-1.9,3.2-3.2,4.6-4
				c1.3-0.9,2.6-1.3,3.9-1.3c1.1,0,2,0.3,2.7,0.9c0.6,0.6,0.9,1.4,0.9,2.4c0,1.2-0.6,2.6-1.5,4c-1.1,1.5-2.9,3.5-5.3,5.7h4.7
				c1.5,0,3-0.6,4.3-1.6c0.2-0.3,0.4-0.3,0.5-0.3c0.1,0,0.2,0,0.2,0.1c0.1,0.1,0.1,0.2,0.1,0.2c0,0.7-0.7,1.6-2.3,2.7
				c-1.6,1-3.2,1.6-4.9,1.6h-5.4c2.1-2.8,3.8-5.2,4.9-7.3c1.1-1.9,1.6-3.5,1.6-4.4c0-0.7-0.2-1.2-0.5-1.5c-0.3-0.3-0.8-0.5-1.4-0.5
				c-1.2,0-2.5,0.5-3.9,1.5c-1.3,1.1-2.3,2.4-3.1,4.1c-0.7,1.7-1.4,3.1-2,4.4c-0.6,1.3-0.9,2.1-1.1,2.4c-0.3,0.7-0.4,1.1-0.6,1.1
				c-0.2,0.2-0.6,0.2-1.2,0.2H277.9z M267.2,539.9v1c-1.4,0.2-2.7,1.1-4,2.4c-1.5,1.8-2.3,3.6-2.3,5.7c0,1.4,0.4,2.3,1.1,3
				c0.7,0.6,1.8,0.9,3.6,0.9h1.5v2.8c-0.7,0.2-1.4,0.2-2.3,0.2c-2.2,0-4-0.5-5.3-1.5c-1.3-1-1.9-2.3-1.9-4.1c0-1.3,0.4-2.8,1.4-4.3
				c0.9-1.6,2.1-2.9,3.6-4c1.1-0.7,2.2-1.4,3.5-1.8C266.5,540.1,266.9,540.1,267.2,539.9L267.2,539.9z M218.6,554v-1.7
				c0.7-0.2,1.2-0.7,1.8-1.3c1.1-1.1,1.9-2.5,2.7-4.3c0.8-1.8,1.2-3.2,1.2-4.3c0-0.6-0.2-1.1-0.4-1.4c-0.3-0.3-0.8-0.4-1.5-0.4
				c-1.5,0-2.7,0.2-3.7,0.9h-0.1v-1c1.4-0.6,2.9-0.9,4.5-0.9c1.4,0,2.3,0.3,3.1,1c0.8,0.7,1.1,1.5,1.1,2.7c0,0.7-0.3,1.9-0.9,3.5
				c-0.6,1.6-1.5,3.6-2.6,6h2.1c1.5,0,2.9-0.6,4-1.5c0.3-0.3,0.6-0.5,0.6-0.5c0.2,0,0.2,0.1,0.2,0.1c0.1,0.1,0.1,0.2,0.1,0.2
				c0,0.5-0.7,1.4-2,2.6c-1.4,1.3-2.7,1.9-3.8,1.9c-1.1,0-1.9-0.4-2.4-1c-0.6-0.7-0.9-1.8-1.1-3.4
				C220.4,552.4,219.5,553.3,218.6,554L218.6,554z M231.7,555.3c0.7-2,1.6-5.5,2.8-10.4c0.3-1.4,0.6-2.4,0.7-3.2h-1.6
				c-0.3,0-0.4,0-0.5-0.1c-0.2-0.1-0.2-0.2-0.2-0.2c0-0.6,0.1-1.1,0.2-1.4c0.1-0.2,0.4-0.4,0.9-0.4h1.6c0.8-2.7,1.5-5,2.3-6.8
				c0.7-1.8,1.5-3.4,2.3-4.7h1.1c0.1,0,0.2,0,0.2,0.1c0.1,0,0.1,0.1,0.2,0.2c0,0-0.2,0.2-0.3,0.7c-1.1,3.1-2.1,6.6-2.7,10.5h5.2
				c0.2,0,0.3,0.1,0.5,0.2c0.1,0,0.2,0.1,0.2,0.2c0,0.6,0,1-0.2,1.4c-0.1,0.2-0.4,0.3-0.9,0.3h-5.2c-0.4,2.4-1,4.4-1.6,6.1
				c-0.7,1.8-1.6,3.4-2.6,4.8h5.2c1.8,0,3.3-0.6,4.4-1.7c0.3-0.3,0.5-0.3,0.6-0.3c0.1,0,0.3,0,0.4,0.1c0.1,0,0.1,0.1,0.1,0.2
				c0,0.7-0.8,1.6-2.4,2.7c-1.6,1.1-3.4,1.7-5.2,1.7H231.7L231.7,555.3z M251.5,537.1v-0.5c0-2.1,0.2-3.5,0.6-4.4
				c0.4-0.8,1.1-1.2,2.1-1.2c0.6,0,1,0.1,1.2,0.2c0.3,0.2,0.4,0.5,0.4,0.9c0,0.6-0.3,1.3-1.1,2.2c-0.1,0.1-0.1,0.2-0.1,0.3l-2.4,2.6
				H251.5L251.5,537.1z M248.1,553h3.4c1.5,0,2.9-0.6,4.3-1.8c0.3-0.2,0.5-0.4,0.6-0.4c0.1,0,0.2,0,0.2,0.1c0.2,0.1,0.2,0.2,0.2,0.2
				c0,0.5-0.7,1.4-2.4,2.7c-1.5,1.3-2.9,2-4.1,2c-1.2,0-2.1-0.3-2.7-1c-0.7-0.7-0.9-1.7-0.9-3c0-0.6,0.2-1.8,0.5-3.4
				c0.3-1.5,0.9-3.6,1.5-5.9c0-0.1,0-0.2,0.1-0.5c0.4-1.5,0.9-2.3,1.5-2.3h1.6c0.4,0,0.6,0,0.7,0.1c0.1,0.1,0.1,0.2,0.1,0.4
				c0,0.1,0,0.1-0.2,0.5c-0.4,1.1-0.8,2.3-1.2,3.6c-0.1,0.3-0.2,0.9-0.5,1.6C250,549,249.1,551.4,248.1,553z M121.5,521.7
				c0.4-0.4,0.8-0.8,1.3-1.2c-0.4,0.1-0.9,0.1-1.3,0.2v-0.9c1.1-0.2,2-0.3,2.7-0.3c0.3,0.1,0.5,0.1,0.6,0.2c0.1,0,0.2,0.1,0.2,0.2
				c0,0.1-0.2,0.2-0.5,0.4c-1.2,0.8-2.2,1.9-3,3.3V521.7L121.5,521.7z M218.6,540.5v1c-1.1,0.6-2.1,1.6-3.2,3
				c-0.8,1.1-1.4,2.2-1.8,3.1c-0.5,1-0.6,1.8-0.6,2.7c0,0.9,0.2,1.4,0.5,1.8c0.4,0.3,1.2,0.6,2.3,0.6c1.2,0,2.1-0.2,2.7-0.4l0.1-0.1
				v1.7c-0.3,0.2-0.7,0.5-1,0.7c-1.1,0.6-2.2,1-3.3,1c-1.5,0-2.5-0.4-3.2-1c-0.7-0.7-1.1-1.8-1.1-3.2c0-1.5,0.4-2.9,1.1-4.3
				c0.7-1.4,1.8-2.7,3.2-4C215.8,542,217.1,541.1,218.6,540.5L218.6,540.5L218.6,540.5z M121.5,553.4v-9.3c0.3-1.9,0.4-3.5,0.4-5.2
				v-0.8c1,0.5,1.5,1.1,1.9,1.9c0.4,0.8,0.7,1.8,0.7,3.1c0,0.3-0.1,0.9-0.1,1.6c-0.1,0.1-0.1,0.3-0.1,0.3c1.7-1.9,3.2-3.2,4.6-4
				c1.3-0.9,2.7-1.3,3.9-1.3c1.2,0,2.1,0.3,2.7,0.9c0.6,0.6,0.9,1.4,0.9,2.4c0,1.2-0.5,2.6-1.5,4c-1.1,1.5-2.7,3.5-5.3,5.7h4.7
				c1.5,0,3-0.6,4.3-1.6c0.3-0.3,0.4-0.3,0.5-0.3c0.1,0,0.1,0,0.2,0.1c0.1,0.1,0.1,0.2,0.1,0.2c0,0.7-0.7,1.6-2.3,2.7
				c-1.6,1-3.2,1.6-5,1.6h-5.4c2.2-2.8,3.8-5.2,4.8-7.3c1.1-1.9,1.7-3.5,1.7-4.4c0-0.7-0.2-1.2-0.5-1.5c-0.4-0.3-0.9-0.5-1.5-0.5
				c-1.2,0-2.5,0.5-3.9,1.5c-1.3,1.1-2.3,2.4-3,4.1c-0.8,1.7-1.4,3.1-2.1,4.4C121.9,552.4,121.6,553,121.5,553.4L121.5,553.4z
				 M140,555.3c0.7-2,1.6-5.5,2.7-10.4c0.3-1.4,0.6-2.4,0.8-3.2H142c-0.2,0-0.4,0-0.5-0.1c-0.2-0.1-0.2-0.2-0.2-0.2
				c0-0.6,0.1-1.1,0.1-1.4c0.1-0.2,0.4-0.4,0.9-0.4h1.6c0.8-2.7,1.5-5,2.3-6.8c0.7-1.8,1.5-3.4,2.4-4.7h1c0.1,0,0.2,0,0.3,0.1
				c0.1,0,0.1,0.1,0.1,0.2c0,0-0.1,0.2-0.3,0.7c-1.1,3.1-2.1,6.6-2.8,10.5h5.3c0.2,0,0.3,0.1,0.5,0.2c0.1,0,0.2,0.1,0.2,0.2
				c0,0.6-0.1,1-0.2,1.4c-0.1,0.2-0.4,0.3-0.9,0.3h-5.3c-0.4,2.4-1,4.4-1.6,6.1c-0.7,1.8-1.5,3.4-2.6,4.8h5.3c1.8,0,3.3-0.6,4.4-1.7
				c0.3-0.3,0.5-0.3,0.6-0.3c0.2,0,0.3,0,0.4,0.1c0.1,0,0.1,0.1,0.1,0.2c0,0.7-0.8,1.6-2.4,2.7c-1.6,1.1-3.4,1.7-5.2,1.7H140
				L140,555.3z M159.3,547c-1-0.2-1.6-0.4-1.9-0.8c-0.3-0.3-0.5-1-0.5-1.8c0-1.4,0.5-2.5,1.6-3.4c1.1-1,2.4-1.4,4-1.4
				c0.5,0,1.3,0,2.4,0.1c1,0.1,1.8,0.1,2.3,0.1h0.7c0.5,0,0.8,0.1,1,0.2c0.2,0.1,0.2,0.2,0.2,0.3c0,0.4-0.3,0.9-1.1,1.5
				c-0.8,0.6-1.5,0.9-2.1,0.9c-0.6,0-1.4-0.2-2.4-0.8c-1.1-0.6-1.9-0.9-2.4-0.9c-0.6,0-1.2,0.2-1.7,0.6c-0.4,0.4-0.6,0.9-0.6,1.5
				c0,0.4,0.2,0.8,0.8,1.1c0.5,0.3,1.4,0.7,2.8,0.9c0.6,0.2,1.2,0.2,1.9,0.2c0.7,0.1,1.2,0.2,1.2,0.5c0,0.6-0.3,1-0.9,1.4
				c-0.6,0.3-1.4,0.5-2.4,0.5c-0.2,0-0.4-0.1-0.6-0.1c-0.3,0-0.6-0.1-0.9-0.2c-1.3,0.6-2.3,1.2-2.9,1.9c-0.7,0.6-1,1.2-1,1.8
				c0,0.6,0.2,1,0.6,1.3c0.5,0.3,1.4,0.3,2.7,0.3h4.8c2.2,0,3.9-0.6,5-1.8c0.3-0.3,0.5-0.4,0.6-0.4c0.1,0,0.2,0,0.2,0.1
				c0.1,0.1,0.1,0.2,0.1,0.3c0,0.2,0,0.2-0.1,0.4c0,0.1-0.1,0.2-0.2,0.3l-1.2,1.2c-1,1.1-1.8,1.8-2.4,2.1c-0.7,0.2-1.8,0.4-3.2,0.4
				H158c-1.6,0-2.7-0.2-3.4-0.6c-0.6-0.4-1-1.1-1-2.1c0-1.1,0.5-2,1.4-2.9C156,548.7,157.3,547.8,159.3,547L159.3,547z M174.3,542.6
				H174c-0.5,0-0.8-0.2-1.1-0.5c-0.2-0.2-0.3-0.6-0.3-1.2c0-0.7,0.2-1.3,0.6-1.8c0.4-0.5,1-0.7,1.5-0.7c0.5,0,0.8,0.2,1,0.4
				c0.3,0.2,0.4,0.6,0.4,1h9.4c-2.3,2.1-3.9,3.9-4.8,5.5c-0.9,1.5-1.4,3.3-1.4,5.3c0,1,0.2,1.6,0.5,1.9c0.3,0.3,1,0.5,1.8,0.5
				c0.9,0,2-0.3,3-0.9c1-0.6,1.6-1,1.7-1c0.1,0,0.2,0.1,0.2,0.1c0.1,0.1,0.1,0.2,0.1,0.3c0,0.5-0.8,1.3-2.3,2.5
				c-1.5,1.2-3,1.8-4.4,1.8c-1.1,0-1.9-0.3-2.5-1c-0.6-0.7-0.8-1.7-0.8-3c0-1.4,0.3-2.8,1.1-4.2c0.7-1.4,2-3.1,4-5.1H176
				c-0.5,1.4-1.1,2.6-1.8,3.6c-0.6,1-1.1,1.4-1.5,1.4c-0.1,0-0.2,0-0.2-0.1c0,0-0.1,0-0.1-0.1c0-0.1,0.3-0.6,0.8-1.6
				C173.9,544.7,174.2,543.7,174.3,542.6L174.3,542.6z M187.6,555.3c1.5-3.5,2.4-6.6,3-9.1c0.6-2.6,1-5,1-7.3v-0.8
				c0.9,0.5,1.5,1.1,1.9,1.9c0.4,0.8,0.6,1.8,0.6,3.1c0,0.3-0.1,0.9-0.1,1.6c-0.1,0.1-0.1,0.3-0.1,0.3c1.7-1.9,3.2-3.2,4.6-4
				c1.3-0.9,2.7-1.3,3.9-1.3c1.2,0,2.1,0.3,2.7,0.9c0.6,0.6,0.9,1.4,0.9,2.4c0,1.2-0.5,2.6-1.5,4c-1,1.5-2.7,3.5-5.2,5.7h4.6
				c1.6,0,3-0.6,4.3-1.6c0.2-0.3,0.4-0.3,0.5-0.3c0.1,0,0.2,0,0.2,0.1c0.1,0.1,0.2,0.2,0.2,0.2c0,0.7-0.8,1.6-2.3,2.7
				c-1.6,1-3.2,1.6-5,1.6h-5.4c2.2-2.8,3.8-5.2,4.8-7.3c1.1-1.9,1.7-3.5,1.7-4.4c0-0.7-0.1-1.2-0.5-1.5c-0.4-0.3-0.9-0.5-1.5-0.5
				c-1.2,0-2.5,0.5-3.9,1.5c-1.3,1.1-2.4,2.4-3,4.1c-0.8,1.7-1.4,3.1-2.1,4.4c-0.6,1.3-0.9,2.1-1,2.4c-0.3,0.7-0.5,1.1-0.7,1.1
				c-0.2,0.2-0.6,0.2-1.2,0.2H187.6z M87.2,556.4c0.4-1,1.6-1.8,3.7-2.3c2.1-0.6,4.8-0.8,8.3-0.8c1.9,0,4,0,6.1,0.1c0.6,0,0.9,0,1,0
				c2.9,0,5.2-3.8,6.7-11.5c0.3-1.8,0.6-3.1,0.8-4.1c1-4.7,2.2-8.3,3.5-10.8c1.1-2,2.3-3.7,4-5.3v1.9c-0.7,1.1-1.2,2.5-1.7,4
				c-0.5,1.7-1.1,4.3-1.9,7.6c-1.4,6.6-3,11.1-4.5,13.7c-1.5,2.5-3.2,4.4-5,5.4c-1.9,1.1-4.4,1.7-7.6,1.7H90.3c-0.5,0-1,0-1.5,0
				C88.4,556.1,87.8,556.2,87.2,556.4L87.2,556.4z M121.5,520.7v-0.9c-0.9,0.1-1.9,0.3-3,0.6c-2.6,0.6-4.9,1.3-7.1,2.2
				c-4.9,2-8.6,4.7-11.2,8.2c-2.6,3.4-3.9,7.4-3.9,12c0,1.9,0.2,3.3,0.5,4.4c0.3,1.1,0.7,1.6,1.2,1.6h0.2c-0.2-0.4-0.2-0.8-0.2-1.3
				c-0.1-0.6-0.2-1.1-0.2-1.7c0-3,0.7-6.2,2.2-9.5c1.4-3.3,3.4-6,5.7-8.2c2.3-2.2,4.9-4,7.7-5.2C116,521.7,118.6,521,121.5,520.7
				L121.5,520.7z M121.5,544.2c-0.2,0.6-0.3,1.3-0.5,2c-0.6,2.5-1.5,5.6-3,9.1h1.3c0.6,0,1,0,1.3-0.2c0.2-0.1,0.4-0.5,0.7-1.1
				c0-0.1,0.1-0.3,0.2-0.6V544.2z"/>
			<path id="XMLID_620_" class="st17" d="M365.7,599v-6.7c0.5,0.1,1,0.2,1.9,0.3c2.3,0,4.3-1.6,6.1-4.9l-5.2-28.5h9.7l2,19.1h0.1
				l9.9-19.1h9.5l-18.9,31.9c-1.8,3-3.3,5-4.6,6c-1.8,1.3-4.1,1.9-7.2,1.9C367.7,599.2,366.6,599.1,365.7,599L365.7,599z
				 M365.7,565.6h0.7l1.4-6.4h-2.1V565.6z M365.7,559.3v6.4h-4.9l-3,14.2c-0.1,0.5-0.2,0.9-0.2,1.2c0,0.9,0.8,1.4,2.5,1.4
				c1,0,2,0,2.8-0.2l-1.3,6.1c-2.8,0.3-4.9,0.4-6.6,0.4c-2.6,0-4.4-0.2-5.5-0.8c-1.2-0.6-1.8-1.9-1.8-3.5c0-0.9,0.1-1.9,0.4-3.1
				l3.3-15.7h-4.8v-0.8l1.2-5.6h4.9l1.9-9h9.3l-1.9,9H365.7L365.7,559.3z M365.7,592.3v6.7c-0.9-0.1-1.6-0.2-2.2-0.4l1.5-6.5
				C365.1,592.2,365.4,592.2,365.7,592.3L365.7,592.3z M346.8,549.7v-0.8h0.2L346.8,549.7z M346.8,548.9v0.8l-1.3,6.1h-9.2l1.4-6.9
				H346.8L346.8,548.9z M346.8,564.8v0.8h-0.2L346.8,564.8L346.8,564.8z M298.5,586.1v-6.9h8.4c-0.3,2.8,1.3,4.3,4.7,4.3
				c1.7,0,3-0.4,4.1-1.2c0.8-0.7,1.3-1.6,1.3-2.5c0-0.8-0.5-1.4-1.4-1.8c-0.6-0.2-2.1-0.6-4.6-1.1c-4-0.9-6.6-1.6-7.8-2.3
				c-2-1.1-3.1-2.7-3.1-4.9c0-0.7,0.1-1.4,0.3-2.2c1.3-6.1,6.6-9.1,16.1-9.1c4.1,0,7.2,0.8,9.3,2.3c2,1.3,3,3.1,3,5.3
				c0,0.6-0.1,1.2-0.3,1.9H319c0-0.3,0-0.6,0-1c0-1.7-1.5-2.6-4.2-2.6c-3.2,0-4.8,0.9-5.2,2.6c-0.3,1.7,2.3,3,7.8,3.8
				c3.2,0.5,5.5,1.1,6.9,1.9c1.9,1.1,2.9,2.7,2.9,4.9c0,0.7-0.1,1.4-0.3,2.2c-1.4,6.5-7,9.6-16.8,9.6
				C304.4,589.3,300.5,588.2,298.5,586.1L298.5,586.1z M298.5,566.1l1.6-7.4c-0.5-0.1-1-0.2-1.6-0.2V566.1L298.5,566.1z
				 M338.5,588.5h-9.2l6.2-29.2h9.3L338.5,588.5z M298.5,558.5v7.6l-0.2,1.3c-1.4-0.2-2.5-0.4-3.5-0.4c-2.4,0-4.5,0.7-6.3,2
				c-1.8,1.4-2.8,3.2-3.3,5.5l-3,14h-9.3l6.3-29.2h9.3l-1.2,5.3h0.1c3-4,6.4-6.1,10.3-6.1C297.9,558.5,298.2,558.5,298.5,558.5
				L298.5,558.5z M298.5,579.2h-1.3c-0.2,0.9-0.2,1.7-0.2,2.5c0,1.8,0.5,3.2,1.5,4.4V579.2L298.5,579.2z M257.2,589.1v-5.8
				c1.9-0.7,3.3-2.1,4.1-4.3h9.3c-0.8,2.8-2.6,5.2-5.3,7C263,587.6,260.3,588.7,257.2,589.1L257.2,589.1z M257.2,575.9v-5.4h6.3
				c0.1-0.6,0.2-1.1,0.2-1.7c0-3.1-1.7-4.7-5.1-4.7c-0.5,0-0.9,0-1.4,0.1v-5.6c0.7-0.1,1.4-0.2,2.2-0.2c8.6,0,13,3.7,13,11.2
				c0,1.9-0.2,4-0.7,6.4H257.2z M257.2,558.5v5.6c-3.2,0.5-5.4,2.6-6.4,6.4h6.4v5.4h-7.6c-0.2,1.1-0.3,1.9-0.3,2.8
				c0,3.2,1.8,4.9,5.3,4.9c1,0,1.9-0.1,2.7-0.3v5.8c-1.1,0.2-2.4,0.3-3.7,0.3c-6.5,0-10.5-1.9-12.4-5.6v-12.3c1.1-3.6,3-6.6,5.7-8.8
				C249.6,560.2,253.1,558.9,257.2,558.5L257.2,558.5z M241.1,561.1l1.1-1.9h-1.1V561.1z M158.6,549.5h1.3l-1.3,6.1V549.5
				L158.6,549.5z M241.1,559.3v1.9l-15.6,27.4h-10.7l-4.3-29.2h10.2l1.1,21.2h0.1l10.3-21.2H241.1L241.1,559.3z M241.1,571.4
				c-0.2,0.7-0.4,1.4-0.5,2.2c-0.3,1.7-0.5,3.3-0.5,4.8c0,2.1,0.3,3.9,1,5.4V571.4L241.1,571.4z M158.6,588.5v-6l5.1-23.3h9.1
				l-0.8,3.9h0.1c2.3-3.1,5.8-4.6,10.6-4.6c2.5,0,4.5,0.6,6,1.7c1.5,1.1,2.3,2.8,2.3,5c0,0.7-0.1,1.5-0.3,2.4l-4.4,20.8H177
				l3.9-18.2c0.1-0.6,0.2-1,0.2-1.5c0-2.2-1.2-3.2-3.6-3.2c-1.7,0-3.2,0.5-4.4,1.4c-1.4,1.1-2.2,2.5-2.6,4.3l-3.7,17.3H158.6
				L158.6,588.5z M208.3,555.7H199l1.5-6.9h9.3L208.3,555.7L208.3,555.7z M201.3,588.5h-9.2l6.2-29.2h9.3L201.3,588.5z M154.6,574.7
				c-1.1,5.2-3.4,9-6.7,11.4c-3.3,2.3-7.8,3.5-13.7,3.5c-5.1,0-8.9-0.8-11.3-2.3c-2.4-1.6-3.6-4.2-3.6-7.8c0-1.4,0.2-3,0.6-4.8
				l5.3-25.2h10.2l-5.6,25.8c-0.1,0.8-0.2,1.5-0.2,2.3c0,3.3,2,5,6.1,5c4.7,0,7.6-2.4,8.6-7.3l5.5-25.8h8.9v6.1L154.6,574.7
				L154.6,574.7z M158.6,582.5l-1.3,6h1.3V582.5z"/>
		</g>
	</g>
</g>
</svg>
